<?xml version="1.0" encoding="UTF-8"?>
<svg width="20px" height="14px" viewBox="0 0 20 14" version="1.1" xmlns="http://www.w3.org/2000/svg" xmlns:xlink="http://www.w3.org/1999/xlink">
    <!-- Generator: sketchtool 54.1 (76490) - https://sketchapp.com -->
    <title>8CE39211-74A3-4A7D-A6D0-30C03946A31B</title>
    <desc>Created with sketchtool.</desc>
    <g id="Welcome" stroke="none" stroke-width="1" fill="none" fill-rule="evenodd">
        <g id="Bank_Loan-Management_Loan-Request" transform="translate(-1166.000000, -163.000000)" fill="#FFFFFF" fill-rule="nonzero">
            <g id="Group-3" transform="translate(1155.000000, 150.000000)">
                <g id="Double-check" transform="translate(11.000000, 13.000000)">
                    <path d="M6.87602518,11.9539964 C6.53324243,12.3572702 5.92844409,12.4063079 5.52517026,12.0635252 C5.12189644,11.7207424 5.07285874,11.1159441 5.41564149,10.7126703 L13.5614748,1.12933693 C13.9096384,0.719732776 14.5265556,0.676583312 14.9283487,1.03373274 L19.2408487,4.86706607 C19.6364322,5.21869584 19.6720637,5.82443186 19.3204339,6.22001535 C18.9688042,6.61559883 18.3630681,6.65123036 17.9674847,6.2996006 L14.3872943,3.11720918 L6.87602518,11.9539964 Z" id="Path-94-Copy" opacity="0.3" transform="translate(12.374996, 6.541669) rotate(-180.000000) translate(-12.374996, -6.541669) "></path>
                    <path d="M2.08435851,12.9123297 C1.74157576,13.3156036 1.13677742,13.3646413 0.733503597,13.0218585 C0.330229776,12.6790758 0.281192073,12.0742774 0.62397482,11.6710036 L8.76980815,2.08767026 C9.11797169,1.67806611 9.73488891,1.63491665 10.136682,1.99206607 L14.449182,5.8253994 C14.8447655,6.17702917 14.880397,6.78276519 14.5287673,7.17834868 C14.1771375,7.57393217 13.5714015,7.6095637 13.175818,7.25793393 L9.59562765,4.07554252 L2.08435851,12.9123297 Z" id="Path-94" transform="translate(7.583329, 7.500002) rotate(-180.000000) translate(-7.583329, -7.500002) "></path>
                </g>
            </g>
        </g>
    </g>
</svg>