<?xml version="1.0" encoding="UTF-8"?>
<svg width="77px" height="77px" viewBox="0 0 77 77" version="1.1" xmlns="http://www.w3.org/2000/svg" xmlns:xlink="http://www.w3.org/1999/xlink">
    <!-- Generator: sketchtool 54.1 (76490) - https://sketchapp.com -->
    <title>9737137D-EE0E-4A14-A752-23156EBCFADE</title>
    <desc>Created with sketchtool.</desc>
    <g id="Welcome" stroke="none" stroke-width="1" fill="none" fill-rule="evenodd">
        <g id="Bank_Loan-Management_Loan-Request_Loan-Offers-Copy" transform="translate(-642.000000, -184.000000)" fill="#848484">
            <g id="Group-2" transform="translate(642.000000, 184.000000)">
                <g id="Group-4" transform="translate(53.000000, 0.000000)">
                    <g id="Plus">
                        <rect id="Rectangle-185" x="0" y="11.1111111" width="24" height="2.77777778" rx="1.38888889"></rect>
                        <path d="M0.833333333,11.1666667 L23.1666667,11.1666667 C23.9030463,11.1666667 24.5,11.7636203 24.5,12.5 L24.5,12.5 C24.5,13.2363797 23.9030463,13.8333333 23.1666667,13.8333333 L0.833333333,13.8333333 C0.0969536669,13.8333333 -0.5,13.2363797 -0.5,12.5 L-0.5,12.5 C-0.5,11.7636203 0.0969536669,11.1666667 0.833333333,11.1666667 Z" id="Rectangle-185-Copy" opacity="0.3" transform="translate(12.000000, 12.500000) rotate(-270.000000) translate(-12.000000, -12.500000) "></path>
                    </g>
                </g>
                <g id="User" transform="translate(0.000000, 11.000000)" fill-rule="nonzero">
                    <path d="M33,29.3333333 C24.8998237,29.3333333 18.3333333,22.766843 18.3333333,14.6666667 C18.3333333,6.56649034 24.8998237,0 33,0 C41.1001763,0 47.6666667,6.56649034 47.6666667,14.6666667 C47.6666667,22.766843 41.1001763,29.3333333 33,29.3333333 Z" id="Mask" opacity="0.3"></path>
                    <path d="M0.00238950906,63.0637536 C1.42361459,45.5638915 15.6270119,36.6666667 32.9389182,36.6666667 C50.4944601,36.6666667 64.9179069,45.0750405 65.9923526,63.0666667 C66.0351556,63.783405 65.9923526,66 63.2378997,66 C49.6507878,66 29.4606573,66 2.66750817,66 C1.74794457,66 -0.0750264184,64.0169932 0.00238950906,63.0637536 Z" id="Mask-Copy" opacity="0.390531994"></path>
                </g>
            </g>
        </g>
    </g>
</svg>