<?xml version="1.0" encoding="UTF-8"?>
<svg width="16px" height="18px" viewBox="0 0 16 18" version="1.1" xmlns="http://www.w3.org/2000/svg" xmlns:xlink="http://www.w3.org/1999/xlink">
    <title>C3E837D2-DF47-4221-82F7-547CD7A36BFA</title>
    <g id="Welcome" stroke="none" stroke-width="1" fill="none" fill-rule="evenodd">
        <g id="Banks-view" transform="translate(-992.000000, -226.000000)" fill="#009831" fill-rule="nonzero">
            <path d="M1006.16686,231.11425 L1007.39581,229.90525 C1007.69371,229.61275 1007.69371,229.138 1007.39581,228.84475 C1007.0979,228.5515 1006.61638,228.5515 1006.31848,228.84475 L1005.08952,230.05375 C1003.89029,229.078 1002.39619,228.4405 1000.7619,228.28825 L1000.7619,227.5 L1002.28571,227.5 C1002.70705,227.5 1003.04762,227.164 1003.04762,226.75 C1003.04762,226.336 1002.70705,226 1002.28571,226 L997.714286,226 C997.292952,226 996.952381,226.336 996.952381,226.75 C996.952381,227.164 997.292952,227.5 997.714286,227.5 L999.238095,227.5 L999.238095,228.28825 C995.183238,228.667 992,232.036 992,236.125 C992,240.4675 995.588571,244 1000,244 C1004.41143,244 1008,240.4675 1008,236.125 C1008,234.223 1007.31124,232.477 1006.16686,231.11425 Z M1002.74286,239.725 C1002.60571,239.82625 1002.44495,239.875 1002.28648,239.875 C1002.05486,239.875 1001.82629,239.7715 1001.67619,239.575 L999.390476,236.575 C999.291429,236.44525 999.238095,236.28775 999.238095,236.125 L999.238095,232 C999.238095,231.58525 999.579429,231.25 1000,231.25 C1000.42057,231.25 1000.7619,231.58525 1000.7619,232 L1000.7619,235.87525 L1002.89524,238.675 C1003.14743,239.0065 1003.07962,239.47675 1002.74286,239.725 Z" id="Shape"></path>
        </g>
    </g>
</svg>