<?xml version="1.0" encoding="UTF-8"?>
<svg width="19px" height="20px" viewBox="0 0 19 20" version="1.1" xmlns="http://www.w3.org/2000/svg" xmlns:xlink="http://www.w3.org/1999/xlink">
    <!-- Generator: sketchtool 54.1 (76490) - https://sketchapp.com -->
    <title>7CFBD2D7-EB16-4A7D-BC53-F073EA8CA546</title>
    <desc>Created with sketchtool.</desc>
    <g id="Welcome" stroke="none" stroke-width="1" fill="none" fill-rule="evenodd">
        <g id="Bank_Loan-Management_Loan-Request" transform="translate(-807.000000, -159.000000)" fill="#009831">
            <g id="Calendar" transform="translate(807.000000, 159.000000)">
                <path d="M13.003068,14.5797179 C13.003068,13.9044591 13.5518447,13.356423 14.228016,13.356423 C14.9041873,13.356423 15.452964,13.9044591 15.452964,14.5797179 C15.452964,15.2549767 14.9041873,15.8030128 14.228016,15.8030128 C13.5518447,15.8030128 13.003068,15.2549767 13.003068,14.5797179 L13.003068,14.5797179 Z M8.16697342,14.5797179 C8.16697342,13.9044591 8.71575014,13.356423 9.39192144,13.356423 C10.0690727,13.356423 10.6168695,13.9044591 10.6168695,14.5797179 C10.6168695,15.2549767 10.0690727,15.8030128 9.39192144,15.8030128 C8.71575014,15.8030128 8.16697342,15.2549767 8.16697342,14.5797179 L8.16697342,14.5797179 Z M3.33185854,14.5797179 C3.33185854,13.9044591 3.8796553,13.356423 4.55680656,13.356423 C5.23297787,13.356423 5.78175458,13.9044591 5.78175458,14.5797179 C5.78175458,15.2549767 5.23297787,15.8030128 4.55680656,15.8030128 C3.8796553,15.8030128 3.33185854,15.2549767 3.33185854,14.5797179 L3.33185854,14.5797179 Z M13.003068,10.5888403 C13.003068,9.91358154 13.5518447,9.36554542 14.228016,9.36554542 C14.9041873,9.36554542 15.452964,9.91358154 15.452964,10.5888403 C15.452964,11.2650778 14.9041873,11.8121353 14.228016,11.8121353 C13.5518447,11.8121353 13.003068,11.2650778 13.003068,10.5888403 L13.003068,10.5888403 Z M8.16697342,10.5888403 C8.16697342,9.91358154 8.71575014,9.36554542 9.39192144,9.36554542 C10.0690727,9.36554542 10.6168695,9.91358154 10.6168695,10.5888403 C10.6168695,11.2650778 10.0690727,11.8121353 9.39192144,11.8121353 C8.71575014,11.8121353 8.16697342,11.2650778 8.16697342,10.5888403 L8.16697342,10.5888403 Z M3.33185854,10.5888403 C3.33185854,9.91358154 3.8796553,9.36554542 4.55680656,9.36554542 C5.23297787,9.36554542 5.78175458,9.91358154 5.78175458,10.5888403 C5.78175458,11.2650778 5.23297787,11.8121353 4.55680656,11.8121353 C3.8796553,11.8121353 3.33185854,11.2650778 3.33185854,10.5888403 L3.33185854,10.5888403 Z M17.6088722,5.8404991 L1.17595009,5.8404991 L1.17595009,4.08580494 C1.17595009,3.21677627 1.88348004,2.50922252 2.75466305,2.50922252 L3.88259515,2.50922252 L3.88259515,3.18448129 C3.88259515,3.50840977 4.14620395,3.77166282 4.47155014,3.77166282 C4.79591636,3.77166282 5.05952517,3.50840977 5.05952517,3.18448129 L5.05952517,2.50922252 L13.7262771,2.50922252 L13.7262771,3.18448129 C13.7262771,3.50840977 13.9898859,3.77166282 14.3142522,3.77166282 C14.6386184,3.77166282 14.9012472,3.50840977 14.9012472,3.18448129 L14.9012472,2.50922252 L16.0291793,2.50922252 C16.9003623,2.50922252 17.6088722,3.21677627 17.6088722,4.08580494 L17.6088722,5.8404991 Z M17.6088722,17.0165215 C17.6088722,17.8865288 16.9003623,18.5940826 16.0291793,18.5940826 L2.75466305,18.5940826 C1.88348004,18.5940826 1.17595009,17.8865288 1.17595009,17.0165215 L1.17595009,7.01486245 L17.6088722,7.01486245 L17.6088722,17.0165215 Z M16.0291802,1.33485942 L14.901248,1.33485942 L14.901248,0.587181562 C14.901248,0.262274431 14.6386192,-1.82190445e-15 14.3142529,-1.82190445e-15 C13.9898867,-1.82190445e-15 13.7262779,0.262274431 13.7262779,0.587181562 L13.7262779,1.33485942 L5.05952543,1.33485942 L5.05952543,0.587181562 C5.05952543,0.262274431 4.7959166,-1.82190445e-15 4.47155036,-1.82190445e-15 C4.14620416,-1.82190445e-15 3.88259534,0.262274431 3.88259534,0.587181562 L3.88259534,1.33485942 L2.75466317,1.33485942 C1.23572759,1.33485942 -1.16759455e-13,2.56891933 -1.16759455e-13,4.08580504 L-1.16759455e-13,17.0165217 C-1.16759455e-13,18.534386 1.23572759,19.7684459 2.75466317,19.7684459 L16.0291802,19.7684459 C17.5490957,19.7684459 18.7838434,18.534386 18.7838434,17.0165217 L18.7838434,4.08580504 C18.7838434,2.56891933 17.5490957,1.33485942 16.0291802,1.33485942 L16.0291802,1.33485942 Z"></path>
            </g>
        </g>
    </g>
</svg>