<?xml version="1.0" encoding="UTF-8"?>
<svg width="13px" height="13px" viewBox="0 0 13 13" version="1.1" xmlns="http://www.w3.org/2000/svg" xmlns:xlink="http://www.w3.org/1999/xlink">
    <!-- Generator: sketchtool 54.1 (76490) - https://sketchapp.com -->
    <title>9C921626-666E-42F5-93F4-0A8CAE250C90</title>
    <desc>Created with sketchtool.</desc>
    <g id="Welcome" stroke="none" stroke-width="1" fill="none" fill-rule="evenodd">
        <g id="Bank_Loan-Management_Loan-Request_Action-select" transform="translate(-276.000000, -163.000000)" fill="#F80A0A">
            <g id="Group-4" transform="translate(257.000000, 154.000000)">
                <g id="Group" transform="translate(25.735702, 15.500000) rotate(-45.000000) translate(-25.735702, -15.500000) translate(17.235702, 7.000000)">
                    <rect id="Rectangle-185" x="0" y="7.29166667" width="16.6666667" height="2.08333333" rx="1.04166667"></rect>
                    <path d="M1.04166667,7.29166667 L15.625,7.29166667 C16.2002966,7.29166667 16.6666667,7.75803672 16.6666667,8.33333333 L16.6666667,8.33333333 C16.6666667,8.90862995 16.2002966,9.375 15.625,9.375 L1.04166667,9.375 C0.466370052,9.375 -2.14743074e-11,8.90862995 -2.14743778e-11,8.33333333 L-2.14743778e-11,8.33333333 C-2.14744483e-11,7.75803672 0.466370052,7.29166667 1.04166667,7.29166667 Z" id="Rectangle-185-Copy" opacity="0.3" transform="translate(8.333333, 8.333333) rotate(-270.000000) translate(-8.333333, -8.333333) "></path>
                </g>
            </g>
        </g>
    </g>
</svg>