<?xml version="1.0" encoding="UTF-8"?>
<svg width="68px" height="68px" viewBox="0 0 68 68" version="1.1" xmlns="http://www.w3.org/2000/svg" xmlns:xlink="http://www.w3.org/1999/xlink">
    <!-- Generator: sketchtool 59 (101010) - https://sketch.com -->
    <title>81C1CA08-E336-4DDA-9881-30A2237C8029</title>
    <desc>Created with sketchtool.</desc>
    <g id="Welcome" stroke="none" stroke-width="1" fill="none" fill-rule="evenodd">
        <g id="Bank_User-Admin-Login_Change-Password" transform="translate(-747.000000, -119.000000)">
            <g id="Group-3" transform="translate(747.000000, 119.000000)">
                <circle id="Oval" fill="#EDEDED" cx="34" cy="34" r="34"></circle>
                <g id="Lock-overturning-Stockholm-icons-/-Code-/-Lock-overturning" transform="translate(10.000000, 10.000000)">
                    <rect id="bound" x="0" y="0" width="48" height="48"></rect>
                    <path d="M11.0588169,2.01353167 C11.2703543,1.83603077 11.5857321,1.86362276 11.763233,2.07516009 L11.763233,2.07516009 L14.7796811,5.66987841 C17.3044004,4.59485217 20.0827326,4.00000012 23,4.00000012 C34.5979797,4.00000012 44,13.4020204 44,25.0000001 C44,36.4808286 34.7869603,45.8098363 23.3507743,45.9971297 L23,46.0000001 L23,46.0000001 C11.4020203,46.0000001 2,36.5979799 2,25.0000001 C2,23.0302649 2.27118909,21.1238692 2.77826728,19.3161131 L6.6296215,20.3964236 C6.21344025,21.880128 6,23.4238529 6,25.0000001 C6,34.3888409 13.6111593,42.0000001 23,42.0000001 C32.3888407,42.0000001 40,34.3888409 40,25.0000001 C40,15.7190771 32.5628044,8.17520416 23.3230397,8.00300797 L23,8.00000012 L23,8.00000012 C21.0977818,8.00000012 19.2452313,8.31176945 17.4981651,8.90868021 L20.5201681,12.511269 C20.5894908,12.5938846 20.6302433,12.6966999 20.636345,12.8043741 C20.6519685,13.0800742 20.4411347,13.3162385 20.1654347,13.331862 L20.1654347,13.331862 L8.76510778,13.9778987 C8.71664008,13.9806453 8.66803074,13.9763188 8.62081002,13.9650553 C8.35220316,13.9009853 8.18639328,13.6312974 8.25046328,13.3626906 L8.25046328,13.3626906 L10.893855,2.28054488 C10.9187579,2.17614181 10.9765958,2.08252335 11.0588169,2.01353167 Z" id="Combined-Shape" fill="#000000" opacity="0.3"></path>
                    <path d="M26.5,16 C27.8807119,16 29,17.1192881 29,18.5 L29,22 L30,22 C30.5522847,22 31,22.4477153 31,23 L31,31 C31,31.5522847 30.5522847,32 30,32 L18,32 C17.4477153,32 17,31.5522847 17,31 L17,23 C17,22.4477153 17.4477153,22 18,22 L19,22 L19,18.5 C19,17.1192881 20.1192881,16 21.5,16 L26.5,16 Z M25.5,18 L22.5,18 C21.6715729,18 21,18.6715729 21,19.5 L21,19.5 L21,22 L27,22 L27,19.5 C27,18.6715729 26.3284271,18 25.5,18 L25.5,18 Z" id="Combined-Shape" fill="#000000"></path>
                </g>
            </g>
        </g>
    </g>
</svg>