<?xml version="1.0" encoding="UTF-8"?>
<svg width="18px" height="18px" viewBox="0 0 18 18" version="1.1" xmlns="http://www.w3.org/2000/svg" xmlns:xlink="http://www.w3.org/1999/xlink">
    <!-- Generator: sketchtool 54.1 (76490) - https://sketchapp.com -->
    <title>91DD0908-0CC4-49B3-AEA6-468225910EC0</title>
    <desc>Created with sketchtool.</desc>
    <g id="Welcome" stroke="none" stroke-width="1" fill="none" fill-rule="evenodd">
        <g id="Bank_Loan-Management_No-Loan-requests" transform="translate(-14.000000, -274.000000)">
            <g id="Chart-bar#1-Stockholm-icons-/-Shopping-/-Chart-bar#1" transform="translate(11.000000, 271.000000)">
                <rect id="bound" x="0" y="0" width="24" height="24"></rect>
                <rect id="Rectangle-62-Copy" fill="#000000" opacity="0.3" x="12" y="4" width="3" height="13" rx="1.5"></rect>
                <rect id="Rectangle-62-Copy-2" fill="#000000" opacity="0.3" x="7" y="9" width="3" height="8" rx="1.5"></rect>
                <path d="M5,19 L20,19 C20.5522847,19 21,19.4477153 21,20 C21,20.5522847 20.5522847,21 20,21 L4,21 C3.44771525,21 3,20.5522847 3,20 L3,4 C3,3.44771525 3.44771525,3 4,3 C4.55228475,3 5,3.44771525 5,4 L5,19 Z" id="Path-95" fill="#27BE58" fill-rule="nonzero"></path>
                <rect id="Rectangle-62-Copy-4" fill="#000000" opacity="0.3" x="17" y="11" width="3" height="6" rx="1.5"></rect>
            </g>
        </g>
    </g>
</svg>