<?xml version="1.0" encoding="UTF-8"?>
<svg width="40px" height="40px" viewBox="0 0 40 40" version="1.1" xmlns="http://www.w3.org/2000/svg" xmlns:xlink="http://www.w3.org/1999/xlink">
    <!-- Generator: sketchtool 59 (101010) - https://sketch.com -->
    <title>FA4D7763-E8B2-4B2D-8A5C-9398E33EB73D</title>
    <desc>Created with sketchtool.</desc>
    <g id="Welcome" stroke="none" stroke-width="1" fill="none" fill-rule="evenodd">
        <g id="Bank_User-Admin-Login_Change-Password-Change-alert-info" transform="translate(-471.000000, -98.000000)">
            <g id="Group-3" transform="translate(456.000000, 78.000000)">
                <g id="Group-7" transform="translate(15.000000, 20.000000)">
                    <circle id="Oval" fill-opacity="0.2" fill="#01C04F" cx="20" cy="20" r="20"></circle>
                    <g id="Check" transform="translate(5.000000, 5.000000)">
                        <polygon id="Shape" points="0 0 30 0 30 30 0 30"></polygon>
                        <path d="M7.82742415,22.0595605 C7.38031622,22.5855699 6.59144881,22.6495321 6.06543947,22.2024241 C5.53943014,21.7553162 5.47546792,20.9664488 5.92257585,20.4404395 L16.5475759,7.94043947 C17.0017022,7.40617319 17.8063768,7.34989128 18.3304548,7.81573835 L23.9554548,12.8157384 C24.4714333,13.2743859 24.5179092,14.0644763 24.0592616,14.5804548 C23.6006141,15.0964333 22.8105237,15.1429092 22.2945452,14.6842616 L17.6247317,10.5333163 L7.82742415,22.0595605 Z" id="Path-94" fill="#01C04F" fill-rule="nonzero" transform="translate(14.999994, 15.000003) rotate(-180.000000) translate(-14.999994, -15.000003) "></path>
                    </g>
                </g>
            </g>
        </g>
    </g>
</svg>