<?xml version="1.0" encoding="UTF-8"?>
<svg width="18px" height="20px" viewBox="0 0 18 20" version="1.1" xmlns="http://www.w3.org/2000/svg" xmlns:xlink="http://www.w3.org/1999/xlink">
    <!-- Generator: sketchtool 59 (101010) - https://sketch.com -->
    <title>755A888D-F79D-49A7-AD56-DFCC79320B99</title>
    <desc>Created with sketchtool.</desc>
    <g id="Welcome" stroke="none" stroke-width="1" fill="none" fill-rule="evenodd">
        <g id="Bank_Loan-Management_Loan-Request_Loan-Details_Make-Offer_Unequal-Repayment-Schedule" transform="translate(-774.000000, -377.000000)" fill="#000000">
            <g id="Cloud-upload" transform="translate(774.000000, 377.000000)">
                <path d="M5.25,12 C4.2899889,12 3.41423368,11.6392577 2.75089526,11.0459342 C1.09610045,9.97742713 0,8.11671755 0,6 C0,2.6862915 2.6862915,0 6,0 C8.79585189,0 11.1450654,1.91228605 11.8110401,4.50025754 L14.25,4.5 C16.3210678,4.5 18,6.17893219 18,8.25 C18,10.3210678 16.3210678,12 14.25,12 L5.25,12 Z" id="Combined-Shape" opacity="0.3"></path>
                <path d="M8.12887612,13.7336961 L8.12887612,15.6901712 L8.12887612,15.6901712 L6.12120481,15.6901712 C5.84506244,15.6901712 5.62120481,15.9140288 5.62120481,16.1901712 L5.62120481,17.2134699 C5.62120481,17.4896123 5.84506244,17.7134699 6.12120481,17.7134699 L8.12887612,17.7134699 L8.12887612,17.7134699 L8.12887612,19.6699418 C8.12887612,19.9460842 8.35273375,20.1699418 8.62887612,20.1699418 C8.74718794,20.1699418 8.86166673,20.1279879 8.95196147,20.0515383 L12.4576226,17.0834086 C12.6683725,16.9049735 12.6945688,16.5894767 12.5161337,16.3787268 C12.4982799,16.3576396 12.4787089,16.3380687 12.4576217,16.3202149 L8.95196061,13.3520989 C8.7412103,13.1736643 8.42571357,13.1998613 8.24727893,13.4106116 C8.17082976,13.5009062 8.12887612,13.6153847 8.12887612,13.7336961 Z" id="Shape" fill-rule="nonzero" transform="translate(8.959697, 16.661508) rotate(-90.000000) translate(-8.959697, -16.661508) "></path>
            </g>
        </g>
    </g>
</svg>