<?xml version="1.0" encoding="UTF-8"?>
<svg width="20px" height="14px" viewBox="0 0 20 14" version="1.1" xmlns="http://www.w3.org/2000/svg" xmlns:xlink="http://www.w3.org/1999/xlink">
    <!-- Generator: sketchtool 54.1 (76490) - https://sketchapp.com -->
    <title>963F7F7C-17A6-4DF2-8B60-416119B2B7AC</title>
    <desc>Created with sketchtool.</desc>
    <g id="Welcome" stroke="none" stroke-width="1" fill="none" fill-rule="evenodd">
        <g id="Bank_Loan-Management_Loan-Request_Action-select" transform="translate(-406.000000, -162.000000)">
            <g id="Group-3" transform="translate(395.000000, 154.000000)">
                <g id="Double-check-Stockholm-icons-/-Navigation-/-Double-check" transform="translate(9.000000, 4.000000)">
                    <polygon id="Shape" points="0 0 23 0 23 23 0 23"></polygon>
                    <path d="M8.87602521,15.9539968 C8.53324246,16.3572706 7.92844413,16.4063083 7.52517032,16.0635256 C7.1218965,15.7207428 7.0728588,15.1159445 7.41564154,14.7126706 L15.5614747,5.12933715 C15.9096382,4.71973298 16.5265555,4.67658352 16.9283486,5.03373295 L21.2408485,8.86706635 C21.636432,9.21869612 21.6720635,9.82443215 21.3204337,10.2200156 C20.968804,10.6155991 20.363068,10.6512307 19.9674845,10.2996009 L16.3872942,7.11720943 L8.87602521,15.9539968 Z" id="Path-94-Copy" fill="#009831" fill-rule="nonzero" opacity="0.3" transform="translate(14.374995, 10.541669) rotate(-180.000000) translate(-14.374995, -10.541669) "></path>
                    <path d="M4.08435854,16.9123301 C3.7415758,17.315604 3.13677746,17.3646417 2.73350365,17.0218589 C2.33022984,16.6790762 2.28119213,16.0742778 2.62397487,15.671004 L10.7698081,6.08767048 C11.1179716,5.67806632 11.7348888,5.63491685 12.1366819,5.99206628 L16.4491818,9.82539968 C16.8447653,10.1770295 16.8803968,10.7827655 16.5287671,11.178349 C16.1771373,11.5739325 15.5714013,11.609564 15.1758178,11.2579342 L11.5956275,8.07554277 L4.08435854,16.9123301 Z" id="Path-94" fill="#27BE58" fill-rule="nonzero" transform="translate(9.583329, 11.500002) rotate(-180.000000) translate(-9.583329, -11.500002) "></path>
                </g>
            </g>
        </g>
    </g>
</svg>