<?xml version="1.0" encoding="UTF-8"?>
<svg width="13px" height="14px" viewBox="0 0 13 14" version="1.1" xmlns="http://www.w3.org/2000/svg" xmlns:xlink="http://www.w3.org/1999/xlink">
    <!-- Generator: sketchtool 59 (101010) - https://sketch.com -->
    <title>95A92E1C-A50E-4ABA-8F7D-735DA1B7570C</title>
    <desc>Created with sketchtool.</desc>
    <g id="Welcome" stroke="none" stroke-width="1" fill="none" fill-rule="evenodd">
        <g id="Bank_Loan-Management_Loan-Request_Loan-Details_Make-Offer_Unequal-Repayment-Schedule" transform="translate(-617.000000, -332.000000)" fill="#27BE58">
            <g id="Download" transform="translate(617.000000, 332.000000)">
                <path d="M0.2,7.8 C0.2,7.5 0.5,7.2 0.8,7.2 C1.1,7.2 1.4,7.5 1.4,7.8 C1.4,8 1.4,9 1.4,10.8 C1.4,11.4627417 1.9372583,12 2.6,12 L9.8,12 C10.4627417,12 11,11.4627417 11,10.8 L11,7.8 C11,7.46862915 11.2686292,7.2 11.6,7.2 C11.9313708,7.2 12.2,7.46862915 12.2,7.8 L12.2,10.8 C12.2,12.1254834 11.1254834,13.2 9.8,13.2 L2.6,13.2 C1.2745166,13.2 0.2,12.1254834 0.2,10.8 C0.2,9 0.2,8 0.2,7.8 Z" id="Path-57" fill-rule="nonzero" opacity="0.3"></path>
                <rect id="Rectangle" opacity="0.3" transform="translate(6.200000, 4.800000) rotate(-180.000000) translate(-6.200000, -4.800000) " x="5.6" y="0.6" width="1.2" height="8.4" rx="0.6"></rect>
                <path d="M3.62426407,9.42426407 C3.38994949,9.65857864 3.01005051,9.65857864 2.77573593,9.42426407 C2.54142136,9.18994949 2.54142136,8.81005051 2.77573593,8.57573593 L5.77573593,5.57573593 C6.00138495,5.35008692 6.36418186,5.34054623 6.60137884,5.55402351 L9.60137884,8.25402351 C9.84768485,8.47569892 9.8676519,8.85507283 9.64597649,9.10137884 C9.42430108,9.34768485 9.04492717,9.3676519 8.79862116,9.14597649 L6.22174247,6.82678567 L3.62426407,9.42426407 Z" id="Path-102" fill-rule="nonzero" transform="translate(6.200003, 7.499999) rotate(-180.000000) translate(-6.200003, -7.499999) "></path>
            </g>
        </g>
    </g>
</svg>