<?xml version="1.0" encoding="UTF-8"?>
<svg width="78px" height="71px" viewBox="0 0 78 71" version="1.1" xmlns="http://www.w3.org/2000/svg" xmlns:xlink="http://www.w3.org/1999/xlink">
    <!-- Generator: sketchtool 59 (101010) - https://sketch.com -->
    <title>D2EE17C0-C7F0-447A-8151-7DF67B39101A</title>
    <desc>Created with sketchtool.</desc>
    <g id="Welcome" stroke="none" stroke-width="1" fill="none" fill-rule="evenodd">
        <g id="Bank_Loan-Management_No-Loan-requests" transform="translate(-742.000000, -230.000000)" fill="#848484">
            <g id="Empty-State-Icon" transform="translate(742.000000, 230.000000)">
                <path d="M21.4733898,-7.10542736e-15 C24.6602802,-7.10542736e-15 27.7480568,1.32814214 29.9514332,3.64279447 L29.9514332,3.64279447 L35.3950691,9.36992762 C36.7369177,10.7825181 38.6277043,11.596293 40.5680479,11.596293 L40.5680479,11.596293 L65.2664488,11.596293 C71.7355315,11.596293 77,16.8973459 77,23.4113841 L77,23.4113841 L77.0009262,37.5442471 C75.5506439,36.8324215 74.0213115,36.2569549 72.429646,35.8345643 L72.4293282,23.4113841 C72.4293282,19.4346348 69.2157533,16.2025664 65.2664488,16.2025664 L65.2664488,16.2025664 L40.5680479,16.2025664 C37.3811575,16.2025664 34.2933809,14.8744242 32.0900045,12.5559333 L32.0900045,12.5559333 L26.6463686,6.82880018 C25.300708,5.4162097 23.4137334,4.60243474 21.4733898,4.60243474 L21.4733898,4.60243474 L11.7335512,4.60243474 C7.78424674,4.60243474 4.57067182,7.83834174 4.57067182,11.8112525 L4.57067182,11.8112525 L4.57067182,58.1887475 C4.57067182,62.1616583 7.78424674,65.3975653 11.7335512,65.3975653 L11.7335512,65.3975653 L41.5842348,65.3978093 C41.935689,66.994744 42.4398218,68.5344212 43.0805492,70.000757 L11.7335512,70 C5.26446854,70 0,64.7027857 0,58.1887475 L0,58.1887475 L0,11.8112525 C0,5.2972143 5.26446854,-7.10542736e-15 11.7335512,-7.10542736e-15 L11.7335512,-7.10542736e-15 Z" id="Combined-Shape" opacity="0.15"></path>
                <path d="M76.6850165,50.9195209 L68.9263162,58.682047 L76.6850165,66.4445731 C77.5802512,67.3398078 77.5802512,68.7936076 76.6850165,69.6888423 C76.2373992,70.1364596 75.6482277,70.3621812 75.0628819,70.3621812 C74.4775362,70.3621812 73.8921905,70.1364596 73.4407473,69.6888423 L65.6782212,61.9263162 L57.9156952,69.6888423 C57.4680778,70.1364596 56.8789063,70.3621812 56.2935606,70.3621812 C55.7082148,70.3621812 55.1190433,70.1364596 54.671426,69.6888423 C53.7761913,68.7936076 53.7761913,67.3398078 54.671426,66.4445731 L62.4301263,58.682047 L54.671426,50.9195209 C53.7761913,50.0242863 53.7761913,48.5704864 54.671426,47.671426 C55.5666606,46.7761913 57.0166347,46.7761913 57.9156952,47.671426 L65.6782212,55.4339521 L73.4407473,47.671426 C74.3398078,46.7761913 75.7897819,46.7761913 76.6850165,47.671426 C77.5802512,48.5704864 77.5802512,50.0242863 76.6850165,50.9195209 L76.6850165,50.9195209 Z" id="Close"></path>
            </g>
        </g>
    </g>
</svg>