<?xml version="1.0" encoding="UTF-8"?>
<svg width="20px" height="25px" viewBox="0 0 20 25" version="1.1" xmlns="http://www.w3.org/2000/svg" xmlns:xlink="http://www.w3.org/1999/xlink">
    <!-- Generator: sketchtool 59 (101010) - https://sketch.com -->
    <title>C6BD5EF9-4ACB-4AE9-9336-9EC1E71F01EE</title>
    <desc>Created with sketchtool.</desc>
    <g id="Welcome" stroke="none" stroke-width="1" fill="none" fill-rule="evenodd">
        <g id="Bank_Loan-Management_Loan-Request_Loan-Details_Make-Offer-Copy-4" transform="translate(-624.000000, -196.000000)" fill="#000000" fill-rule="nonzero">
            <g id="Selected-file" transform="translate(624.000000, 196.000000)">
                <path d="M9.61005255,0 C10.0002058,-5.15759194e-16 10.3777372,0.138252742 10.6756219,0.390213547 L15.9155694,4.82233576 C16.2862185,5.13584317 16.5,5.59666606 16.5,6.08212222 L16.5,19.8916667 C16.5,21.8612626 16.4775073,22 14.4571429,22 L2.04285714,22 C0.148765441,22 0.0106157694,21.8780628 0.000745856173,20.2399236 L0.000745856173,1.76007635 C0.0102867723,0.176541794 0.139697996,0.00981381253 1.85924083,0.00045809662 L9.61005255,0 Z M8.8,16.5 L5.5,16.5 C4.89248678,16.5 4.4,16.9924868 4.4,17.6 C4.4,18.2075132 4.89248678,18.7 5.5,18.7 L5.5,18.7 L8.8,18.7 C9.40751322,18.7 9.9,18.2075132 9.9,17.6 C9.9,16.9924868 9.40751322,16.5 8.8,16.5 L8.8,16.5 Z M13.2,12.1 L5.5,12.1 C4.89248678,12.1 4.4,12.5924868 4.4,13.2 C4.4,13.8075132 4.89248678,14.3 5.5,14.3 L5.5,14.3 L13.2,14.3 C13.8075132,14.3 14.3,13.8075132 14.3,13.2 C14.3,12.5924868 13.8075132,12.1 13.2,12.1 L13.2,12.1 Z" id="Combined-Shape-Copy" opacity="0.3"></path>
                <path d="M12.9100526,2.2 C13.3002058,2.2 13.6777372,2.33825274 13.9756219,2.59021355 L19.2155694,7.02233576 C19.5862185,7.33584317 19.8,7.79666606 19.8,8.28212222 L19.8,22.0916667 C19.8,24.0612626 19.7775073,24.2 17.7571429,24.2 L4.24285714,24.2 C2.34876544,24.2 2.21061577,24.0780628 2.20074586,22.4399236 L2.20074586,3.96007635 C2.21028677,2.37654179 2.339698,2.20981381 4.05924083,2.2004581 L12.9100526,2.2 Z M8.8,16.5 L5.5,16.5 C4.89248678,16.5 4.4,16.9924868 4.4,17.6 C4.4,18.2075132 4.89248678,18.7 5.5,18.7 L5.5,18.7 L8.8,18.7 C9.40751322,18.7 9.9,18.2075132 9.9,17.6 C9.9,16.9924868 9.40751322,16.5 8.8,16.5 L8.8,16.5 Z M13.2,12.1 L5.5,12.1 C4.89248678,12.1 4.4,12.5924868 4.4,13.2 C4.4,13.8075132 4.89248678,14.3 5.5,14.3 L5.5,14.3 L13.2,14.3 C13.8075132,14.3 14.3,13.8075132 14.3,13.2 C14.3,12.5924868 13.8075132,12.1 13.2,12.1 L13.2,12.1 Z" id="Combined-Shape"></path>
            </g>
        </g>
    </g>
</svg>