<?xml version="1.0" encoding="UTF-8"?>
<svg width="16px" height="16px" viewBox="0 0 16 16" version="1.1" xmlns="http://www.w3.org/2000/svg" xmlns:xlink="http://www.w3.org/1999/xlink">
    <title>62242059-6FCE-4063-933A-57A30F22E1FA</title>
    <g id="Welcome" stroke="none" stroke-width="1" fill="none" fill-rule="evenodd">
        <g id="Banks-view" transform="translate(-635.000000, -227.000000)" fill="#10852C" fill-rule="nonzero">
            <g id="loading-process" transform="translate(635.000000, 227.000000)">
                <path d="M13.6567006,2.34311082 C12.1457526,0.832155278 10.1367238,0 7.99993991,0 C5.86307585,0 3.85412718,0.832115217 2.34313915,2.34311082 C0.832151111,3.85414648 0,5.86314527 0,7.99997997 C0,10.1368547 0.832151111,12.1458936 2.34317921,13.6568892 C3.85416724,15.1678848 5.86311591,16 7.99997997,16 C10.136804,16 12.1457526,15.1678848 13.6568208,13.6568892 C15.1678088,12.1458936 16,10.1368948 16,7.99997997 C16,5.86314527 15.1676886,3.85414648 13.6567006,2.34311082 Z M13.1425152,2.85737893 C14.5161735,4.23104408 15.272649,6.05740297 15.272649,7.99997997 L13.624211,7.99997997 C13.624211,4.89874733 11.1011971,2.37572079 7.99997997,2.37572079 C7.81597891,2.37572079 7.63406103,2.38489485 7.45454682,2.40224143 L7.45454682,0.747305245 C7.63514268,0.734004862 7.81706056,0.727274548 7.99997997,0.727274548 C9.94254724,0.727274548 11.7688169,1.48375385 13.1425152,2.85737893 Z M7.99993991,12.8969646 C5.29977541,12.8969646 3.10301986,10.7001981 3.10301986,8.00002003 C3.10301986,5.29984201 5.29977541,3.1030354 7.99993991,3.1030354 C10.7001044,3.1030354 12.8969,5.29980195 12.8969,7.99997997 C12.8969,10.700158 10.7001044,12.8969646 7.99993991,12.8969646 Z" id="Shape"></path>
            </g>
        </g>
    </g>
</svg>