<?xml version="1.0" encoding="UTF-8"?>
<svg width="15px" height="16px" viewBox="0 0 15 16" version="1.1" xmlns="http://www.w3.org/2000/svg" xmlns:xlink="http://www.w3.org/1999/xlink">
    <!-- Generator: sketchtool 59 (101010) - https://sketch.com -->
    <title>BADB5573-5EFC-458A-A108-82FF9E7891D9</title>
    <desc>Created with sketchtool.</desc>
    <g id="Welcome" stroke="none" stroke-width="1" fill="none" fill-rule="evenodd">
        <g id="Bank_User-Setup_Added-User-(1)" transform="translate(-1178.000000, -331.000000)">
            <g id="Lock-overturning" transform="translate(1177.000000, 330.000000)">
                <rect id="bound" x="0" y="0" width="17" height="17"></rect>
                <path d="M16,9.27955085 C16,13.4598316 12.7725256,16.8641381 8.74273105,16.9960332 L8.5,17 L8.5,17 C4.35786438,17 1,13.5434372 1,9.27955085 C1,8.55539652 1.09685325,7.85452839 1.2779526,7.18992416 L2.65343625,7.58708996 C2.50480009,8.13255972 2.42857143,8.70009539 2.42857143,9.27955085 C2.42857143,12.7312684 5.14684259,15.5294383 8.5,15.5294383 C11.8531574,15.5294383 14.5714286,12.7312684 14.5714286,9.27955085 C14.5714286,5.90453818 11.9726271,3.15434929 8.72258039,3.03378534 L8.5,3.02966344 L8.5,3.02966344 C7.82069444,3.02966344 7.1591243,3.14426285 6.53521899,3.3636747 L7.21082835,4.19316005 C7.26156505,4.25540297 7.29239304,4.33147589 7.29930096,4.4114801 C7.31830492,4.63157508 7.15528844,4.82540307 6.93519346,4.84440704 L6.93519346,4.84440704 L3.83333055,5.11223547 C3.78803367,5.1161466 3.74240151,5.1123066 3.69839527,5.10088051 C3.48457146,5.04536177 3.35623984,4.8270165 3.41175858,4.61319269 L3.41175858,4.61319269 L4.21384793,1.524041 C4.23523267,1.44168024 4.28232483,1.36828499 4.34828041,1.31452196 C4.51951332,1.17494316 4.771476,1.20060388 4.9110548,1.37183679 L4.9110548,1.37183679 L5.56421951,2.17299558 L5.56421951,2.17299558 C6.47034203,1.77680611 7.46047317,1.5591017 8.5,1.5591017 C12.6421356,1.5591017 16,5.01566452 16,9.27955085 Z" id="Combined-Shape" fill="#000000" opacity="0.3"></path>
                <g id="User" transform="translate(6.000000, 7.000000)" fill="#000000" fill-rule="nonzero">
                    <path d="M2.43571429,2.16507937 C1.83784413,2.16507937 1.3531746,1.68040984 1.3531746,1.08253968 C1.3531746,0.484669525 1.83784413,0 2.43571429,0 C3.03358444,0 3.51825397,0.484669525 3.51825397,1.08253968 C3.51825397,1.68040984 3.03358444,2.16507937 2.43571429,2.16507937 Z" id="Mask"></path>
                    <path d="M0.000176368526,4.65470562 C0.105076315,3.36304914 1.15342231,2.70634921 2.43120587,2.70634921 C3.72697205,2.70634921 4.79155979,3.32696727 4.87086412,4.65492063 C4.87402339,4.70782275 4.87086412,4.87142857 4.66755927,4.87142857 C3.66470101,4.87142857 2.17447709,4.87142857 0.196887508,4.87142857 C0.129014956,4.87142857 -0.00553766421,4.72506379 0.000176368526,4.65470562 Z" id="Mask-Copy"></path>
                </g>
            </g>
        </g>
    </g>
</svg>