<?xml version="1.0" encoding="UTF-8"?>
<svg width="26px" height="24px" viewBox="0 0 26 24" version="1.1" xmlns="http://www.w3.org/2000/svg" xmlns:xlink="http://www.w3.org/1999/xlink">
    <!-- Generator: sketchtool 54.1 (76490) - https://sketchapp.com -->
    <title>48567626-903E-4E5D-9AD0-8DC2260B1A3F</title>
    <desc>Created with sketchtool.</desc>
    <g id="Welcome" stroke="none" stroke-width="1" fill="none" fill-rule="evenodd">
        <g id="Bank_Loan-Management_No-Loan-requests" transform="translate(-1113.000000, -27.000000)">
            <g id="notification-icon" transform="translate(1113.000000, 27.000000)">
                <ellipse id="border" fill="#009831" cx="12.8571429" cy="12" rx="12.8571429" ry="12"></ellipse>
                <g id="icon" transform="translate(7.000000, 5.000000)" fill="#FFFFFF" fill-rule="nonzero">
                    <path d="M6,14 C6.825,14 7.5,13.37 7.5,12.6 L4.5,12.6 C4.5,13.37 5.1675,14 6,14 Z M10.5,9.8 L10.5,6.3 C10.5,4.151 9.27,2.352 7.125,1.876 L7.125,1.4 C7.125,0.819 6.6225,0.35 6,0.35 C5.3775,0.35 4.875,0.819 4.875,1.4 L4.875,1.876 C2.7225,2.352 1.5,4.144 1.5,6.3 L1.5,9.8 L0,11.2 L0,11.9 L12,11.9 L12,11.2 L10.5,9.8 Z" id="Shape"></path>
                </g>
            </g>
        </g>
    </g>
</svg>