<?xml version="1.0" encoding="UTF-8"?>
<svg width="18px" height="14px" viewBox="0 0 18 14" version="1.1" xmlns="http://www.w3.org/2000/svg" xmlns:xlink="http://www.w3.org/1999/xlink">
    <title>4BBC6136-22D1-4125-BB66-5ED9AA04759A</title>
    <g id="Welcome" stroke="none" stroke-width="1" fill="none" fill-rule="evenodd">
        <g id="IPISS" transform="translate(-648.000000, -224.000000)" fill="#10852C" fill-rule="nonzero">
            <g id="Group-9-Copy" transform="translate(648.000000, 218.000000)">
                <g id="Group" transform="translate(0.000000, 6.000000)">
                    <path d="M8,3 C8,3.79565 7.68393,4.55871 7.12132,5.12132 C6.55871,5.68393 5.79565,6 5,6 C4.20435,6 3.44129,5.68393 2.87868,5.12132 C2.31607,4.55871 2,3.79565 2,3 C2,2.20435 2.31607,1.44129 2.87868,0.87868 C3.44129,0.316071 4.20435,0 5,0 C5.79565,0 6.55871,0.316071 7.12132,0.87868 C7.68393,1.44129 8,2.20435 8,3 Z M16,3 C16,3.39397 15.9224,3.78407 15.7716,4.14805 C15.6209,4.51203 15.3999,4.84274 15.1213,5.12132 C14.8427,5.3999 14.512,5.62087 14.1481,5.77164 C13.7841,5.9224 13.394,6 13,6 C12.606,6 12.2159,5.9224 11.8519,5.77164 C11.488,5.62087 11.1573,5.3999 10.8787,5.12132 C10.6001,4.84274 10.3791,4.51203 10.2284,4.14805 C10.0776,3.78407 10,3.39397 10,3 C10,2.20435 10.3161,1.44129 10.8787,0.87868 C11.4413,0.316071 12.2044,0 13,0 C13.7956,0 14.5587,0.316071 15.1213,0.87868 C15.6839,1.44129 16,2.20435 16,3 Z M11.93,14 C11.976,13.673 12,13.34 12,13 C12.0023,11.4289 11.4737,9.90302 10.5,8.67 C11.2601,8.23116 12.1223,8.00013 13,8.00013 C13.8776,8.00013 14.7399,8.23114 15.4999,8.66997 C16.26,9.1088 16.8912,9.73997 17.3301,10.5 C17.7689,11.2601 18,12.1223 18,13 L18,14 L11.93,14 Z M5,8 C6.32608,8 7.59785,8.52678 8.53553,9.46447 C9.47322,10.4021 10,11.6739 10,13 L10,14 L0,14 L0,13 C0,11.6739 0.526784,10.4021 1.46447,9.46447 C2.40215,8.52678 3.67392,8 5,8 Z" id="Shape"></path>
                </g>
            </g>
        </g>
    </g>
</svg>