<?xml version="1.0" encoding="UTF-8"?>
<svg width="16px" height="16px" viewBox="0 0 16 16" version="1.1" xmlns="http://www.w3.org/2000/svg" xmlns:xlink="http://www.w3.org/1999/xlink">
    <!-- Generator: sketchtool 54.1 (76490) - https://sketchapp.com -->
    <title>F084FB0A-9F70-4C74-A9E4-322DA5F09B8F</title>
    <desc>Created with sketchtool.</desc>
    <g id="Welcome" stroke="none" stroke-width="1" fill="none" fill-rule="evenodd">
        <g id="Bank_Loan-Management_Loan-Request" transform="translate(-557.000000, -163.000000)" fill="#009831">
            <g id="search-icon-copy-4" transform="translate(557.000000, 163.000000)">
                <g id="Group">
                    <path d="M11.1581618,9.81918239 L10.452966,9.81918239 L10.2030232,9.57816609 C11.077823,8.56054174 11.6044883,7.23941538 11.6044883,5.80224414 C11.6044883,2.59762007 9.00686821,-1.77635684e-15 5.80224414,-1.77635684e-15 C2.59762007,-1.77635684e-15 1.77635684e-15,2.59762007 1.77635684e-15,5.80224414 C1.77635684e-15,9.00686821 2.59762007,11.6044883 5.80224414,11.6044883 C7.23941538,11.6044883 8.56054174,11.077823 9.57816609,10.2030232 L9.81918239,10.452966 L9.81918239,11.1581618 L14.2824471,15.6125 L15.6125,14.2824471 L11.1581618,9.81918239 L11.1581618,9.81918239 Z M5.80224414,9.81918239 C3.57953831,9.81918239 1.78530589,8.02494997 1.78530589,5.80224414 C1.78530589,3.57953831 3.57953831,1.78530589 5.80224414,1.78530589 C8.02494997,1.78530589 9.81918239,3.57953831 9.81918239,5.80224414 C9.81918239,8.02494997 8.02494997,9.81918239 5.80224414,9.81918239 Z" id="Shape"></path>
                </g>
            </g>
        </g>
    </g>
</svg>