<?xml version="1.0" encoding="UTF-8"?>
<svg width="15px" height="16px" viewBox="0 0 15 16" version="1.1" xmlns="http://www.w3.org/2000/svg" xmlns:xlink="http://www.w3.org/1999/xlink">
    <!-- Generator: sketchtool 59 (101010) - https://sketch.com -->
    <title>C2C27FA0-BB12-49BF-A75E-8772680FC24B</title>
    <desc>Created with sketchtool.</desc>
    <g id="Welcome" stroke="none" stroke-width="1" fill="none" fill-rule="evenodd">
        <g id="Bank_User-Admin-Login_Account-menu--Dropdown" transform="translate(-1161.000000, -110.000000)">
            <g id="Sign-out" transform="translate(1160.000000, 109.000000)">
                <rect id="bound" x="0" y="0" width="17.493" height="17.493"></rect>
                <path d="M10.2093107,5.10655115 C9.80676411,5.10655115 9.48043566,4.78036425 9.48043566,4.37799231 C9.48043566,3.97562037 9.80676411,3.64943346 10.2093107,3.64943346 L10.9381857,3.64943346 C12.5483718,3.64943346 13.8536857,4.95418109 13.8536857,6.56366885 L13.8536857,10.9343896 C13.8536857,12.5438774 12.5483718,13.848625 10.9381857,13.848625 L2.19168566,13.848625 C0.581499468,13.848625 -0.723814344,12.5438774 -0.723814344,10.9343896 L-0.723814344,6.55861038 C-0.723814344,4.94912262 0.581499468,3.644375 2.19168566,3.644375 L2.92056417,3.644375 C3.32311072,3.644375 3.64943917,3.97056191 3.64943917,4.37293385 C3.64943917,4.77530579 3.32311072,5.10149269 2.92056417,5.10149269 L2.19168566,5.10149269 C1.38659256,5.10149269 0.733935656,5.7538665 0.733935656,6.55861038 L0.733935656,10.9343896 C0.733935656,11.7391335 1.38659256,12.3915073 2.19168566,12.3915073 L10.9381857,12.3915073 C11.7432787,12.3915073 12.3959357,11.7391335 12.3959357,10.9343896 L12.3959357,6.56366885 C12.3959357,5.75892497 11.7432787,5.10655115 10.9381857,5.10655115 L10.2093107,5.10655115 Z" id="Path-103" fill="#000000" fill-rule="nonzero" opacity="0.3" transform="translate(6.564936, 8.746500) scale(-1, 1) rotate(-90.000000) translate(-6.564936, -8.746500) "></path>
                <path d="M10.161375,4.37325 L10.247125,4.37325 C10.6259923,4.37325 10.933125,4.68038266 10.933125,5.05925 L10.933125,12.43375 C10.933125,12.8126173 10.6259923,13.11975 10.247125,13.11975 L10.161375,13.11975 C9.78250766,13.11975 9.475375,12.8126173 9.475375,12.43375 L9.475375,5.05925 C9.475375,4.68038266 9.78250766,4.37325 10.161375,4.37325 Z" id="Rectangle" fill="#000000" opacity="0.3" transform="translate(10.204250, 8.746500) rotate(-270.000000) translate(-10.204250, -8.746500) "></path>
                <path d="M15.884295,7.13779504 C16.1689384,6.85315165 16.6304366,6.85315165 16.91508,7.13779504 C17.1997233,7.42243844 17.1997233,7.88393656 16.91508,8.16857996 L14.728455,10.355205 C14.4438116,10.6398483 13.9823134,10.6398483 13.69767,10.355205 L11.511045,8.16857996 C11.2264017,7.88393656 11.2264017,7.42243844 11.511045,7.13779504 C11.7956884,6.85315165 12.2571866,6.85315165 12.54183,7.13779504 L14.2130625,8.80902759 L15.884295,7.13779504 Z" id="Path-104" fill="#000000" fill-rule="nonzero" transform="translate(14.213062, 8.746500) rotate(-90.000000) translate(-14.213062, -8.746500) "></path>
            </g>
        </g>
    </g>
</svg>