<?xml version="1.0" encoding="UTF-8"?>
<svg version="1.1"
     xmlns="http://www.w3.org/2000/svg"
     xmlns:xlink="http://www.w3.org/1999/xlink"
     style="display: none;"
>
    <symbol id="pdf-file" viewBox="0 0 20 25">
        <g>
            <path d="M4.97583756,16.0555901 C4.97583756,15.6411491 4.69380711,15.3939959 4.19619289,15.3939959 C3.99299492,15.3939959 3.85538071,15.414441 3.78340102,15.4340062 L3.78340102,16.7637164 C3.86862944,16.7832816 3.97340102,16.7898033 4.11781726,16.7898033 C4.64822335,16.7898033 4.97583756,16.5165631 4.97583756,16.0555901 Z" id="Path"></path>
            <path d="M8.05629442,15.4079193 C7.83345178,15.4079193 7.68944162,15.4275362 7.60426396,15.4478778 L7.60426396,18.3928054 C7.68949239,18.4131988 7.8271066,18.4131988 7.95152284,18.4131988 C8.85553299,18.4197205 9.4451269,17.9123188 9.4451269,16.8371636 C9.45152284,15.9022257 8.91426396,15.4079193 8.05629442,15.4079193 Z" id="Path"></path>
            <path d="M13.7795939,0 L3.94979695,0 C2.51375635,0 1.34497462,1.19259834 1.34497462,2.6560559 L1.34497462,12.4776915 L1.09055838,12.4776915 C0.510964467,12.4776915 0.0409137056,12.9565217 0.0409137056,13.5480331 L0.0409137056,20.0389234 C0.0409137056,20.630383 0.510913706,21.1091615 1.09055838,21.1091615 L1.34497462,21.1091615 L1.34497462,22.2993789 C1.34497462,23.764441 2.51375635,24.9554348 3.94979695,24.9554348 L17.362132,24.9554348 C18.7972589,24.9554348 19.9661929,23.7643892 19.9661929,22.2993789 L19.9661929,6.28618012 L13.7795939,0 Z M2.79456853,14.7194099 C3.10218274,14.6664079 3.53456853,14.6264493 4.14375635,14.6264493 C4.75939086,14.6264493 5.19817259,14.7462733 5.49299492,14.9869565 C5.77461929,15.2137681 5.96467005,15.588147 5.96467005,16.0287267 C5.96467005,16.4692029 5.8206599,16.8436853 5.55862944,17.0973602 C5.21781726,17.4244824 4.71380711,17.5713251 4.1242132,17.5713251 C3.99299492,17.5713251 3.87538071,17.5646998 3.78340102,17.5517081 L3.78340102,19.1612319 L2.79456853,19.1612319 L2.79456853,14.7194099 Z M17.362132,23.3288302 L3.94979695,23.3288302 C3.39375635,23.3288302 2.94096447,22.8671325 2.94096447,22.2993789 L2.94096447,21.1091615 L15.4440102,21.1091615 C16.0237056,21.1091615 16.4937056,20.630383 16.4937056,20.0389234 L16.4937056,13.5480331 C16.4937056,12.9565217 16.0237056,12.4776915 15.4440102,12.4776915 L2.94096447,12.4776915 L2.94096447,2.6560559 C2.94096447,2.08990683 3.39380711,1.62820911 3.94979695,1.62820911 L13.1827919,1.61837474 L13.1827919,5.09834369 C13.1827919,6.11480331 13.9916244,6.94032091 14.9892386,6.94032091 L18.3324873,6.9305383 L18.3701015,22.2993271 C18.3701015,22.8671325 17.9181218,23.3288302 17.362132,23.3288302 Z M6.60228426,19.1408385 L6.60228426,14.7194099 C6.96903553,14.6598861 7.44705584,14.6264493 7.95152284,14.6264493 C8.78989848,14.6264493 9.3335533,14.7798137 9.75954315,15.1068841 C10.2179695,15.4543996 10.5059391,16.0083333 10.5059391,16.8036232 C10.5059391,17.6650621 10.1983249,18.2597826 9.77228426,18.6268116 C9.30746193,19.0208075 8.59989848,19.2076605 7.73548223,19.2076605 C7.21781726,19.2076605 6.85106599,19.1742236 6.60228426,19.1408385 Z M13.7508629,16.5230849 L13.7508629,17.3510352 L12.1655838,17.3510352 L12.1655838,19.1612319 L11.1635533,19.1612319 L11.1635533,14.6598861 L13.8620305,14.6598861 L13.8620305,15.4943582 L12.1655838,15.4943582 L12.1655838,16.5230849 L13.7508629,16.5230849 Z" id="Shape"></path>
        </g>
    </symbol>

    <symbol id="printer" viewBox="0 0 20 20">
        <g>
            <rect id="Rectangle" x="6.24016461" y="14.9755556" width="6.23942387" height="1.2481893"></rect>
            <path d="M4.99226337,1.24802469 L14.9755967,1.24802469 L14.9755967,3.74395062 L16.2233745,3.74395062 L16.2233745,1.24802469 C16.2234156,0.559465021 15.6652675,0 14.9755967,0 L4.99226337,0 C4.30304527,0 3.74423868,0.559465021 3.74423868,1.24802469 L3.74423868,3.74395062 L4.99226337,3.74395062 L4.99226337,1.24802469 Z" id="Path"></path>
            <rect id="Rectangle" x="6.24016461" y="12.4797119" width="7.48720165" height="1.24802469"></rect>
            <path d="M18.7194239,4.99193416 L1.24831276,4.99193416 C0.55909465,4.99193416 0.000288065844,5.55123457 0.000288065844,6.23983539 L0.000288065844,13.7277366 C0.000288065844,14.4174074 0.55909465,14.9755144 1.24831276,14.9755144 L3.74423868,14.9755144 L3.74423868,18.7195473 C3.74423868,19.4094239 4.30304527,19.9675309 4.99226337,19.9675309 L14.9755967,19.9675309 C15.6652675,19.9675309 16.2233745,19.4094239 16.2233745,18.7195473 L16.2233745,14.9755144 L18.7193827,14.9755144 C19.4090947,14.9755144 19.9672016,14.4174074 19.9672016,13.7277366 L19.9672016,6.23983539 C19.9672428,5.55123457 19.4091358,4.99193416 18.7194239,4.99193416 Z M14.9755967,18.7195885 L4.99226337,18.7195885 L4.99226337,11.2316872 L14.9755967,11.2316872 L14.9755967,18.7195885 Z M17.4712346,8.73588477 C16.7815226,8.73588477 16.2234156,8.17769547 16.2234156,7.48786008 C16.2234156,6.79934156 16.7815226,6.23983539 17.4712346,6.23983539 C18.1611523,6.23983539 18.7194239,6.79930041 18.7194239,7.48786008 C18.7194239,8.17765432 18.1611111,8.73588477 17.4712346,8.73588477 Z" id="Shape"></path>
        </g>
    </symbol>

    <symbol id="dashboard" viewBox="0 0 15 15">
        <g id="Page-1" stroke="none" stroke-width="1" fill-rule="evenodd">
            <g id="Group-8" transform="translate(-90.000000, -99.000000)" fill-rule="nonzero">
                <g id="Group-9" transform="translate(90.000000, 95.000000)">
                    <g id="dashboard" transform="translate(0.000000, 4.000000)">
                        <path d="M13.2812118,0 L1.71878815,0 C0.770645156,0 -2.84217094e-14,0.770645156 -2.84217094e-14,1.71878815 L-2.84217094e-14,13.2812118 C-2.84217094e-14,14.2293548 0.770645156,15 1.71878815,15 L13.2812118,15 C14.2293548,15 15,14.2293548 15,13.2812118 L15,1.71878815 C15,0.770645156 14.2293548,8.32667268e-16 13.2812118,0 Z" id="Path"></path>
                        <g id="Group" transform="translate(1.875000, 1.875000)" fill="#FAFAFA" fill-opacity="0.6">
                            <path d="M5.00003815,10.1562882 C5.00003815,10.7593918 4.50942993,11.25 3.90621185,11.25 L1.09371185,11.25 C0.490608223,11.25 0,10.7593918 0,10.1562882 L0,6.09375 C0,5.49064635 0.490608223,5.00003815 1.09371185,5.00003815 L3.90621185,5.00003815 C4.50942993,5.00003815 5.00003815,5.49064635 5.00003815,6.09375 L5.00003815,10.1562882 Z" id="Path"></path>
                            <path d="M5.00003815,2.65628815 C5.00003815,3.25939178 4.50942993,3.75 3.90621185,3.75 L1.09371185,3.75 C0.490608223,3.75 0,3.25939178 0,2.65628815 L0,1.09371185 C0,0.490608223 0.490608223,0 1.09371185,0 L3.90621185,0 C4.50942993,0 5.00003815,0.490608223 5.00003815,1.09371185 L5.00003815,2.65628815 Z" id="Path"></path>
                            <path d="M11.25,10.1562882 C11.25,10.7593918 10.7593918,11.25 10.1562882,11.25 L7.34378815,11.25 C6.74057007,11.25 6.24996185,10.7593918 6.24996185,10.1562882 L6.24996185,8.59371185 C6.24996185,7.99060822 6.74057007,7.5 7.34378815,7.5 L10.1562882,7.5 C10.7593918,7.5 11.25,7.99060822 11.25,8.59371185 L11.25,10.1562882 Z" id="Path"></path>
                            <path d="M11.25,5.15625 C11.25,5.75935365 10.7593918,6.24996185 10.1562882,6.24996185 L7.34378815,6.24996185 C6.74057007,6.24996185 6.24996185,5.75935365 6.24996185,5.15625 L6.24996185,1.09371185 C6.24996185,0.490608223 6.74057007,2.84217094e-14 7.34378815,2.84217094e-14 L10.1562882,2.84217094e-14 C10.7593918,2.84217094e-14 11.25,0.490608223 11.25,1.09371185 L11.25,5.15625 Z" id="Path"></path>
                        </g>
                    </g>
                </g>
            </g>
        </g>
    </symbol>

    <symbol id="document-new" viewBox="0 0 15 15">
        <g id="Page-1" stroke="none" stroke-width="1" fill-rule="evenodd">
            <g id="Group-8" transform="translate(-223.000000, -99.000000)" fill-rule="nonzero">
                <g id="Group-9" transform="translate(223.000000, 95.000000)">
                    <g id="Group-10">
                        <g id="new-document" transform="translate(0.000000, 4.000000)">
                            <polygon id="Path" points="7.7041626 0.257377617 7.7041626 3.76556396 11.2123489 3.76556396"></polygon>
                            <path d="M6.18164062,11.0302734 C6.18164062,8.35670473 8.35670473,6.18164062 11.0302734,6.18164062 C11.1784744,6.18164062 11.3249588,6.18873598 11.4697266,6.20178223 L11.4697266,4.64458465 L7.26470947,4.64458465 C7.02198029,4.64458465 6.82525635,4.44774627 6.82525635,4.20513152 L6.82525635,0 L0.439453125,0 C0.196723945,0 0,0.196723945 0,0.439453125 L0,14.5605469 C0,14.8032761 0.196723945,15 0.439453125,15 L8.24958803,15 C7.00000764,14.1220093 6.18164062,12.6700973 6.18164062,11.0302734 Z" id="Path"></path>
                            <path d="M12.2070694,10.5908203 L11.4697266,10.5908203 L11.4697266,9.85347747 C11.4697266,9.61086272 11.2730026,9.41402435 11.0302734,9.41402435 C10.7875443,9.41402435 10.5908203,9.61086272 10.5908203,9.85347747 L10.5908203,10.5908203 L9.85359193,10.5908203 C9.61086272,10.5908203 9.41413881,10.7875443 9.41413881,11.0302734 C9.41413881,11.2730026 9.61086272,11.4697266 9.85359193,11.4697266 L10.5908203,11.4697266 L10.5908203,12.2070694 C10.5908203,12.4496842 10.7875443,12.6465225 11.0302734,12.6465225 C11.2730026,12.6465225 11.4697266,12.4496842 11.4697266,12.2070694 L11.4697266,11.4697266 L12.2070694,11.4697266 C12.4497986,11.4697266 12.6465225,11.2730026 12.6465225,11.0302734 C12.6465225,10.7875443 12.4497986,10.5908203 12.2070694,10.5908203 L12.2070694,10.5908203 Z" id="Path"></path>
                            <path d="M11.0302734,7.06054688 C8.84136199,7.06054688 7.06054688,8.84136199 7.06054688,11.0302734 C7.06054688,13.2191849 8.84136199,15 11.0302734,15 C13.2191849,15 15,13.2191849 15,11.0302734 C15,8.84136199 13.2191849,7.06054688 11.0302734,7.06054688 Z M11.0302734,14.1210938 C9.32601929,14.1210938 7.93945312,12.7345276 7.93945312,11.0302734 C7.93945312,9.32601929 9.32601929,7.93945312 11.0302734,7.93945312 C12.7345276,7.93945312 14.1210938,9.32601929 14.1210938,11.0302734 C14.1210938,12.7345276 12.7345276,14.1210938 11.0302734,14.1210938 Z" id="Shape"></path>
                        </g>
                    </g>
                </g>
            </g>
        </g>
    </symbol>

    <symbol id="calendar" viewBox="0 0 15 15">
        <g stroke="none" stroke-width="1" fill="none" fill-rule="evenodd">
            <g transform="translate(-1256.000000, -186.000000)" fill="currentColor" fill-rule="nonzero">
                <g transform="translate(1055.000000, 172.000000)">
                    <g transform="translate(201.000000, 11.000000)">
                        <g transform="translate(0.000000, 3.000000)">
                            <path d="M5.41139121,8.26107362 C5.41139121,8.07349693 5.25574268,7.92153374 5.06369247,7.92153374 L3.85035565,7.92153374 C3.6585251,7.92153374 3.50284519,8.07349693 3.50284519,8.26107362 L3.50284519,9.44696319 C3.50284519,9.63478528 3.6585251,9.78680982 3.85035565,9.78680982 L5.06369247,9.78680982 C5.25574268,9.78680982 5.41139121,9.63478528 5.41139121,9.44696319 L5.41139121,8.26107362 L5.41139121,8.26107362 Z"></path>
                            <path d="M8.44368201,8.26107362 C8.44368201,8.07349693 8.28800209,7.92153374 8.09632845,7.92153374 L6.88283473,7.92153374 C6.69100418,7.92153374 6.53532427,8.07349693 6.53532427,8.26107362 L6.53532427,9.44696319 C6.53532427,9.63478528 6.69100418,9.78680982 6.88283473,9.78680982 L8.09632845,9.78680982 C8.28800209,9.78680982 8.44368201,9.63478528 8.44368201,9.44696319 L8.44368201,8.26107362 Z"></path>
                            <path d="M11.4761297,8.26107362 C11.4761297,8.07349693 11.3204498,7.92153374 11.1286192,7.92153374 L9.91528243,7.92153374 C9.72323222,7.92153374 9.56758368,8.07349693 9.56758368,8.26107362 L9.56758368,9.44696319 C9.56758368,9.63478528 9.72323222,9.78680982 9.91528243,9.78680982 L11.1286192,9.78680982 C11.3204498,9.78680982 11.4761297,9.63478528 11.4761297,9.44696319 L11.4761297,8.26107362 Z"></path>
                            <path d="M5.41139121,11.2254601 C5.41139121,11.0375767 5.25574268,10.8857362 5.06369247,10.8857362 L3.85035565,10.8857362 C3.6585251,10.8857362 3.50284519,11.0375767 3.50284519,11.2254601 L3.50284519,12.411135 C3.50284519,12.5988344 3.6585251,12.7508282 3.85035565,12.7508282 L5.06369247,12.7508282 C5.25574268,12.7508282 5.41139121,12.5988037 5.41139121,12.411135 L5.41139121,11.2254601 L5.41139121,11.2254601 Z"></path>
                            <path d="M8.44368201,11.2254601 C8.44368201,11.0375767 8.28800209,10.8857362 8.09632845,10.8857362 L6.88283473,10.8857362 C6.69100418,10.8857362 6.53532427,11.0375767 6.53532427,11.2254601 L6.53532427,12.411135 C6.53532427,12.5988344 6.69100418,12.7508282 6.88283473,12.7508282 L8.09632845,12.7508282 C8.28800209,12.7508282 8.44368201,12.5988037 8.44368201,12.411135 L8.44368201,11.2254601 Z"></path>
                            <path d="M11.4761297,11.2254601 C11.4761297,11.0375767 11.3204498,10.8857362 11.1287762,10.8857362 L9.91528243,10.8857362 C9.72323222,10.8857362 9.56758368,11.0375767 9.56758368,11.2254601 L9.56758368,12.411135 C9.56758368,12.5988344 9.72323222,12.7508282 9.91528243,12.7508282 L11.1287762,12.7508282 C11.3204498,12.7508282 11.4761297,12.5988037 11.4761297,12.411135 L11.4761297,11.2254601 L11.4761297,11.2254601 Z"></path>
                            <path d="M13.6457008,1.66730061 L13.6457008,3.47865031 C13.6457008,4.29736196 12.9662448,4.95711656 12.128818,4.95711656 L11.1719247,4.95711656 C10.3344351,4.95711656 9.6459728,4.29736196 9.6459728,3.47865031 L9.6459728,1.66079755 L5.33300209,1.66079755 L5.33300209,3.47865031 C5.33300209,4.29736196 4.64457113,4.95711656 3.80720711,4.95711656 L2.85012552,4.95711656 C2.01273013,4.95711656 1.33330544,4.29736196 1.33330544,3.47865031 L1.33330544,1.66730061 C0.601412134,1.68886503 -2.88036262e-12,2.2808589 -2.88036262e-12,3.00849693 L-2.88036262e-12,13.623865 C-2.88036262e-12,14.365184 0.614686192,14.9740184 1.37306485,14.9740184 L13.60591,14.9740184 C14.363159,14.9740184 14.9789749,14.3639264 14.9789749,13.623865 L14.9789749,3.00849693 C14.9789749,2.2808589 14.3775941,1.68886503 13.6457008,1.66730061 Z M13.2012552,12.9628221 C13.2012552,13.2831902 12.935523,13.5430982 12.6076569,13.5430982 L2.34517782,13.5430982 C2.01731172,13.5430982 1.7515795,13.2831902 1.7515795,12.9628221 L1.7515795,7.47960123 C1.7515795,7.15911043 2.01728033,6.89920245 2.34517782,6.89920245 L12.6076255,6.89920245 C12.9354916,6.89920245 13.2012238,7.15911043 13.2012238,7.47960123 L13.2012552,12.9628221 L13.2012552,12.9628221 Z"></path>
                            <path d="M2.84676778,3.98604294 L3.79327406,3.98604294 C4.08056485,3.98604294 4.31350418,3.75868098 4.31350418,3.47785276 L4.31350418,0.508374233 C4.31350418,0.227515337 4.08056485,-1.11022302e-14 3.79327406,-1.11022302e-14 L2.84676778,-1.11022302e-14 C2.55944561,-1.11022302e-14 2.32653766,0.227515337 2.32653766,0.508374233 L2.32653766,3.47785276 C2.32653766,3.75868098 2.55944561,3.98604294 2.84676778,3.98604294 Z"></path>
                            <path d="M11.159749,3.98604294 L12.1062552,3.98604294 C12.3933577,3.98604294 12.6262971,3.75868098 12.6262971,3.47785276 L12.6262971,0.508374233 C12.6263285,0.227515337 12.3933891,-1.11022302e-14 12.1062552,-1.11022302e-14 L11.159749,-1.11022302e-14 C10.8724895,-1.11022302e-14 10.6395502,0.227515337 10.6395502,0.508374233 L10.6395502,3.47785276 C10.6395502,3.75868098 10.8724895,3.98604294 11.159749,3.98604294 Z"></path>
                        </g>
                    </g>
                </g>
            </g>
        </g>
    </symbol>

    <symbol id="comment" viewBox="0 0 20 16">
        <g id="comment" stroke="none" stroke-width="1" fill="none" fill-rule="evenodd">
            <g id="Group-8" transform="translate(-1098.000000, -28.000000)" fill="#818181" fill-rule="nonzero">
                <g id="speech-bubbles-comment-option" transform="translate(1098.000000, 28.000000)">
                    <path d="M11.7940234,10.8627295 C13.0020703,10.3450918 13.9557422,9.64049628 14.6545703,8.74866501 C15.3533203,7.85703226 15.7027344,6.88603474 15.7027344,5.83563275 C15.7027344,4.78519107 15.3533203,3.81411414 14.6542969,2.92244169 C13.9555469,2.03076923 13.0020313,1.32609429 11.7938281,0.808337469 C10.585625,0.29066005 9.27152344,0.0319205955 7.85132813,0.0319205955 C6.43125,0.0319205955 5.11714844,0.290818859 3.90886719,0.808337469 C2.70070313,1.32605459 1.74714844,2.03072953 1.04835938,2.92244169 C0.349492187,3.81427295 0,4.78519107 0,5.83567246 C0,6.73484864 0.264335938,7.58157816 0.7921875,8.3750273 C1.32,9.16831762 2.04496094,9.83722084 2.96683594,10.3812208 C2.89253906,10.5627395 2.81632813,10.7287742 2.73824219,10.8801191 C2.66011719,11.0312258 2.56726562,11.1765757 2.459375,11.3164864 C2.3515625,11.4564367 2.26800781,11.5659355 2.20847656,11.6450223 C2.14898437,11.7243474 2.05234375,11.8360695 1.9184375,11.9793945 C1.78457031,12.1229975 1.69902344,12.2174491 1.66191406,12.26267 C1.66191406,12.2550868 1.64703125,12.2721985 1.61726562,12.3137667 C1.58746094,12.355335 1.57074219,12.3741141 1.56707031,12.3705806 C1.56332031,12.3664913 1.5484375,12.3853896 1.52242187,12.4269578 C1.49640625,12.4685658 1.48335937,12.48933 1.48335937,12.48933 L1.45542969,12.5458263 C1.44441406,12.5686551 1.43683594,12.5909677 1.43316406,12.6137965 C1.42941406,12.6363077 1.42753906,12.6610422 1.42753906,12.6874045 C1.42753906,12.7137667 1.43121094,12.7382233 1.43878906,12.7610124 C1.45367187,12.8591166 1.49640625,12.9383226 1.56703125,12.999067 C1.63761719,13.0594144 1.71375,13.0895484 1.795625,13.0895484 L1.82910156,13.0895484 C2.20078125,13.036665 2.52054687,12.9762382 2.78816406,12.9081489 C3.93316406,12.6060149 4.96671875,12.1221638 5.88863281,11.4572308 C6.55773437,11.5781638 7.21203125,11.6385906 7.85140625,11.6385906 C9.27160156,11.6391067 10.5858594,11.3804467 11.7940234,10.8627295 Z" id="Path"></path>
                    <path d="M19.1935156,11.2820248 C19.7215625,10.4923871 19.9853906,9.6444268 19.9853906,8.73750868 C19.9853906,7.8079206 19.70625,6.93836228 19.1488281,6.129866 C18.5911328,5.32144913 17.8326562,4.64877419 16.8736328,4.11223821 C17.0444922,4.67894789 17.13,5.25324069 17.13,5.83523573 C17.13,6.84776179 16.88125,7.80748387 16.3827734,8.71440199 C15.8846484,9.62104218 15.1708594,10.421995 14.2415234,11.11734 C13.3790234,11.7520993 12.3975781,12.2393648 11.2971094,12.5795335 C10.1969531,12.919464 9.04816406,13.0896278 7.85109375,13.0896278 C7.628125,13.0896278 7.3009375,13.07466 6.86976562,13.0444864 C8.36414062,14.0417667 10.1188672,14.540665 12.1336719,14.540665 C12.7731641,14.540665 13.4273828,14.4800794 14.0966016,14.3591861 C15.0184766,15.024397 16.0520703,15.5078114 17.1969922,15.810263 C17.4646484,15.8784715 17.784375,15.9387792 18.1561328,15.9916228 C18.2453125,15.999206 18.3272656,15.9727246 18.4015625,15.9122581 C18.4758984,15.8518313 18.5242969,15.768933 18.5464844,15.6632457 C18.5430078,15.617866 18.5464844,15.5929727 18.5576953,15.5893598 C18.5686719,15.5857866 18.5667969,15.5610918 18.5520703,15.5158313 C18.5373828,15.4704119 18.5298828,15.4477419 18.5298828,15.4477419 L18.5020703,15.391206 C18.4943359,15.3762779 18.4817578,15.3553548 18.4630469,15.3289926 C18.4444531,15.3027891 18.4296484,15.2836129 18.4183984,15.2723375 C18.4074609,15.261062 18.3908594,15.2420447 18.3683984,15.2158015 C18.3462109,15.189598 18.33125,15.1724467 18.32375,15.1648635 C18.2866016,15.1194839 18.2011328,15.025072 18.0673437,14.8814293 C17.9333984,14.7379851 17.8369141,14.6265409 17.7774219,14.5472159 C17.7179297,14.4678511 17.6342578,14.3583524 17.5264844,14.218402 C17.41875,14.0787295 17.3257031,13.9332208 17.2476172,13.7820347 C17.1695703,13.630928 17.0933594,13.4646154 17.0190234,13.2833747 C17.9409766,12.7388189 18.6657422,12.0719404 19.1935156,11.2820248 Z" id="Path"></path>
                </g>
            </g>
        </g>
    </symbol>

    <symbol id="notification" viewBox="0 0 18 16">
        <g stroke="none" stroke-width="1" fill="none" fill-rule="evenodd">
            <g transform="translate(-1139.000000, -27.000000)" fill="#818181" fill-rule="nonzero">
                <g transform="translate(1139.000000, 27.000000)">
                    <path d="M7.5,18 C8.53390351,18 9.37135965,17.1738606 9.37135965,16.1538317 L5.62868421,16.1538317 C5.62864035,17.1738606 6.46609649,18 7.5,18 Z" id="Path"></path>
                    <path d="M13.1140351,12.4615385 L13.1140351,7.84613942 C13.1140351,5.00767788 11.5842105,2.63998558 8.90350877,2.01227885 L8.90350877,1.38461538 C8.90350877,0.618447115 8.27662281,0 7.5,0 C6.72337719,0 6.09649123,0.618447115 6.09649123,1.38461538 L6.09649123,2.01232212 C3.41578947,2.64002885 1.88596491,5.00772115 1.88596491,7.84618269 L1.88596491,12.4615385 L0.0146052632,14.3077067 L0.0146052632,15.2307692 L14.9853509,15.2307692 L14.9853509,14.3077067 L13.1140351,12.4615385 Z" id="Path"></path>
                </g>
            </g>
        </g>
    </symbol>

    <symbol id="user-circled" viewBox="0 0 40 40">
        <g stroke="none" stroke-width="1" fill="none" fill-rule="evenodd">
            <g transform="translate(-1295.000000, -16.000000)">
                <g id="Group-6" transform="translate(1295.000000, 16.000000)">
                    <circle id="Oval" fill="#818181" cx="20" cy="20" r="20"></circle>
                    <g id="admin-with-cogwheels" transform="translate(10.000000, 10.000000)" fill="#FFFFFF" fill-rule="nonzero">
                        <path d="M19.4042391,16.6339394 C18.5019565,13.9425895 16.1177717,12.0915152 13.3654891,11.8395592 C12.4438587,12.8289807 11.3027717,13.4566942 10.0105435,13.4566942 C8.71929348,13.4566942 7.57733696,12.8290358 6.65657609,11.8395592 C3.90266304,12.0915152 1.51836957,13.9425895 0.616086957,16.6343802 L0.117336957,18.1226997 C-0.025326087,18.5509642 0.0429891304,19.022865 0.30298913,19.390303 C0.562934783,19.7578512 0.981576087,19.9760331 1.42717391,19.9760331 L18.5930978,19.9760331 C19.0395652,19.9760331 19.4582065,19.7578512 19.7182065,19.390303 C19.9772826,19.022865 20.0465217,18.5509642 19.9029891,18.1226997 L19.4042391,16.6339394 Z" id="Path"></path>
                        <path d="M5.5348913,5.22214876 C5.5348913,8.56038567 7.53940217,12.1424242 10.0105435,12.1424242 C12.482663,12.1424242 14.4870652,8.56038567 14.4870652,5.22214876 C14.4871196,-1.69763085 5.5348913,-1.71134986 5.5348913,5.22214876 Z" id="Path"></path>
                    </g>
                </g>
            </g>
        </g>
    </symbol>

    <symbol id="checked-circle" viewBox="0 0 20 20">
        <g transform="translate(213.000000, 10.000000)">
            <circle id="Oval" fill="#83C33C" cx="9.98425197" cy="9.98425197" r="9.98425197"></circle>
            <g id="Group" transform="translate(3.346457, 4.921260)" fill="#FFFFFF">
                <path d="M6.88976378,7.2992126 C7.33070866,7.74015748 7.33070866,8.49606299 6.88976378,8.93700787 L5.97637795,9.8503937 C5.53543307,10.2913386 4.77952756,10.2913386 4.33858268,9.8503937 L0.338582677,5.81889764 C-0.102362205,5.37795276 -0.102362205,4.62204724 0.338582677,4.18110236 L1.2519685,3.26771654 C1.69291339,2.82677165 2.4488189,2.82677165 2.88976378,3.26771654 L6.88976378,7.2992126 Z" id="Path"></path>
                <path d="M10.3858268,0.338582677 C10.8267717,-0.102362205 11.5826772,-0.102362205 12.023622,0.338582677 L12.9370079,1.2519685 C13.3779528,1.69291339 13.3779528,2.4488189 12.9370079,2.88976378 L6.00787402,9.78740157 C5.56692913,10.2283465 4.81102362,10.2283465 4.37007874,9.78740157 L3.45669291,8.87401575 C3.01574803,8.43307087 3.01574803,7.67716535 3.45669291,7.23622047 L10.3858268,0.338582677 Z" id="Path"></path>
            </g>
        </g>
    </symbol>

    <symbol id="upload" viewBox="0 0 40 30">
        <g transform="translate(-844.000000, -362.000000)" fill="currentColor" fill-rule="nonzero">
            <g id="Group-5" transform="translate(270.000000, 252.000000)">
                <g transform="translate(283.000000, 0.000000)">
                    <g transform="translate(291.000000, 110.000000)">
                        <path d="M22.550354,29.9702381 L17.4713134,29.9702381 C16.8237305,29.9702381 16.298523,29.437314 16.298523,28.7797619 L16.298523,21.8799603 L12.0306397,21.8799603 C11.5692139,21.8799603 11.1508179,21.6052827 10.9613037,21.1783854 C10.7717895,20.7514881 10.8462524,20.2517361 11.1517334,19.9007937 L19.0896606,10.7893105 C19.3038941,10.5431548 19.6090698,10.3980655 19.9325562,10.3881448 C19.9588012,10.3872148 19.9850464,10.3872148 20.0109863,10.3881448 C20.0372314,10.3872148 20.0634766,10.3872148 20.0897217,10.3881448 C20.4129028,10.3980655 20.7180786,10.5434648 20.932312,10.7893105 L28.8699341,19.9007937 C29.1757202,20.2517361 29.2501831,20.7514881 29.0606689,21.1783854 C28.8711548,21.6052827 28.4527587,21.8799603 27.991333,21.8799603 L23.7234497,21.8799603 L23.7234497,28.7797619 C23.7234497,29.437314 23.1982422,29.9702381 22.550354,29.9702381 L22.550354,29.9702381 Z" id="Path"></path>
                        <path d="M38.0914306,17.1964906 C38.6352539,16.0370163 38.9190673,14.7764757 38.9190673,13.4945437 C38.9190673,11.1039806 37.9544067,8.84951635 36.2033081,7.1456473 C34.6572876,5.64205111 32.6473999,4.71416175 30.4779053,4.4897073 C29.185791,1.77486357 26.4456177,0 23.4326172,0 C20.0125122,0 17.036438,2.265625 16.0028077,5.46316968 C15.0018311,5.15500992 13.9584351,4.99938 12.8860473,4.99938 C7.30743406,4.99938 2.76885984,9.29966516 2.76885984,14.5851935 C2.76885984,15.234065 2.83752437,15.8770461 2.97332766,16.5073165 C1.19567875,17.3707217 -5.68434189e-14,19.21937 -5.68434189e-14,21.2893725 C-5.68434189e-14,24.0752108 2.12921141,26.3653274 4.82269289,26.5718006 C4.94659422,26.6170635 5.08026125,26.6418651 5.21972656,26.6418651 L13.954773,26.6418651 L13.954773,24.2609127 L12.0306397,24.2609127 C10.6503296,24.2609127 9.39208984,23.4353298 8.82476805,22.1574281 C8.25683594,20.8789063 8.48144531,19.3737599 9.3966675,18.3231027 L17.3345947,9.21161952 C17.9745484,8.47687254 18.8955688,8.03819444 19.8614502,8.00843254 C19.894104,8.00719246 19.9307251,8.00657238 19.9676514,8.00657238 L20.0527954,8.00657238 C20.0875855,8.00657238 20.1226806,8.00719246 20.1577759,8.00812254 C21.1270141,8.03850444 22.0477295,8.47718254 22.6876831,9.21192952 L30.6253052,18.3227927 C31.5405273,19.3734499 31.7651367,20.8789063 31.1972046,22.1577381 C30.6298828,23.4353298 29.3713379,24.2609127 27.991333,24.2609127 L26.0671997,24.2609127 L26.0671997,26.6418651 L34.7805786,26.6418651 C34.9197387,26.6418651 35.0534058,26.6173735 35.1773071,26.5718006 C37.8707886,26.3653274 40,24.0752108 40,21.2893725 C40,19.6940104 39.2779541,18.1913443 38.0914306,17.1964906 L38.0914306,17.1964906 Z" id="Path"></path>
                    </g>
                </g>
            </g>
        </g>
    </symbol>

    <symbol id="plus" viewBox="0 0 20 20">
        <g stroke="none" stroke-width="1" fill="none" fill-rule="evenodd">
            <g transform="translate(-858.000000, -571.000000)" fill="#FFFFFF" fill-rule="nonzero">
                <g id="Group-5" transform="translate(270.000000, 252.000000)">
                    <g id="Group-8" transform="translate(283.000000, 0.000000)">
                        <g id="Group-3" transform="translate(214.000000, 303.000000)">
                            <g transform="translate(91.000000, 16.000000)">
                                <path d="M10,0 C4.45454545,0 0,4.45454545 0,10 C0,15.5454545 4.45454545,20 10,20 C15.5454545,20 20,15.5454545 20,10 C20,4.45454545 15.5454545,0 10,0 Z M15.4545455,10.4545455 C15.4545455,10.7272727 15.2727273,10.9090909 15,10.9090909 L11.1363636,10.9090909 C11,10.9090909 10.9090909,11 10.9090909,11.1363636 L10.9090909,15 C10.9090909,15.2727273 10.7272727,15.4545455 10.4545455,15.4545455 L9.54545455,15.4545455 C9.27272727,15.4545455 9.09090909,15.2727273 9.09090909,15 L9.09090909,11.1363636 C9.09090909,11 9,10.9090909 8.86363636,10.9090909 L5,10.9090909 C4.72727273,10.9090909 4.54545455,10.7272727 4.54545455,10.4545455 L4.54545455,9.54545455 C4.54545455,9.27272727 4.72727273,9.09090909 5,9.09090909 L8.86363636,9.09090909 C9,9.09090909 9.09090909,9 9.09090909,8.86363636 L9.09090909,5 C9.09090909,4.72727273 9.27272727,4.54545455 9.54545455,4.54545455 L10.4545455,4.54545455 C10.7272727,4.54545455 10.9090909,4.72727273 10.9090909,5 L10.9090909,8.86363636 C10.9090909,9 11,9.09090909 11.1363636,9.09090909 L15,9.09090909 C15.2727273,9.09090909 15.4545455,9.27272727 15.4545455,9.54545455 L15.4545455,10.4545455 Z" id="Shape"></path>
                            </g>
                        </g>
                    </g>
                </g>
            </g>
        </g>
    </symbol>

    <symbol id="eye-invisibility" viewBox="0 0 20 15">
        <g stroke="none" stroke-width="1" fill="none" fill-rule="evenodd">
            <g transform="translate(-1043.000000, -664.000000)" fill="currentColor" fill-rule="nonzero">
                <g transform="translate(298.000000, 266.000000)">
                    <g transform="translate(415.000000, 362.000000)">
                        <g transform="translate(330.000000, 36.000000)">
                            <path d="M14.1078516,8.90851948 C14.6952344,8.05932468 14.9891016,7.11935065 14.9891016,6.08871429 C14.9891016,5.79954545 14.9594141,5.48805195 14.8998047,5.15427273 L11.7772266,10.7382078 C12.7435547,10.3675714 13.5205078,9.75732468 14.1078516,8.90851948 Z" id="Path"></path>
                            <path d="M14.5653125,1.2164026 C14.5727734,1.20167532 14.57625,1.16828571 14.57625,1.11635065 C14.57625,0.990233766 14.5167969,0.890298701 14.3976953,0.815766234 C14.3755078,0.800961039 14.3030469,0.758298701 14.1801953,0.687701299 C14.0576172,0.617376623 13.9403516,0.548727273 13.8290625,0.481909091 C13.7175781,0.415168831 13.5951172,0.346636364 13.4610156,0.276194805 C13.3271875,0.205714286 13.2119922,0.148246753 13.1154687,0.103714286 C13.0186328,0.0592597403 12.9518359,0.036974026 12.9146484,0.036974026 C12.7808203,0.036974026 12.6766797,0.0963896104 12.6023828,0.214987013 L12.0003125,1.29405195 C11.3239063,1.16805195 10.6545703,1.10493506 9.99285156,1.10493506 C7.9928125,1.10493506 6.14894531,1.60932468 4.46109375,2.61783117 C2.77335938,3.62649351 1.36078125,5.00201299 0.223085937,6.7447013 C0.0743359375,6.97476623 0,7.23062338 0,7.51242857 C0,7.79415584 0.0743359375,8.05012987 0.223085937,8.27988312 C0.877304688,9.29571429 1.65246094,10.2044026 2.54839844,11.0051688 C3.44433594,11.8062468 4.42382812,12.4474286 5.48703125,12.9296883 C5.15988281,13.4857792 4.99632813,13.8084935 4.99632813,13.8975584 C4.99632813,14.031 5.05585937,14.1347532 5.17484375,14.2088571 C6.08183594,14.7281688 6.57992188,14.9874935 6.66921875,14.9874935 C6.80289063,14.9874935 6.90707031,14.9279221 6.98140625,14.8092468 L7.52789063,13.8194026 C8.31605469,12.4180909 9.49070313,10.3155974 11.0521875,7.51246753 C12.6135938,4.70925974 13.7846094,2.61058442 14.5653125,1.2164026 Z M6.1896875,11.6838312 C4.25664063,10.8162078 2.66914063,9.42584416 1.42761719,7.51254545 C2.55773438,5.76237662 3.97410156,4.4534026 5.67671875,3.58593506 C5.22320313,4.35705195 4.99636719,5.19136364 4.99636719,6.08867532 C4.99636719,6.88211688 5.1784375,7.63464935 5.54285156,8.34666234 C5.9071875,9.05863636 6.41277344,9.64796104 7.05964844,10.1151818 L6.1896875,11.6838312 Z M10.3720703,3.61897403 C10.2680859,3.72288312 10.1413672,3.77477922 9.99269531,3.77477922 C9.35332031,3.77477922 8.80671875,4.00106494 8.35320312,4.45332468 C7.89957031,4.90585714 7.67289062,5.45084416 7.67289062,6.08855844 C7.67289062,6.23703896 7.62070312,6.363 7.51667969,6.46687013 C7.41246094,6.57077922 7.28613281,6.62267532 7.1375,6.62267532 C6.98871094,6.62267532 6.86230469,6.5707013 6.75820312,6.46687013 C6.65402344,6.363 6.60199219,6.23688312 6.60199219,6.08855844 C6.60199219,5.16167532 6.93480469,4.36624675 7.60015625,3.70250649 C8.26554687,3.03884416 9.06292969,2.70693506 9.99238281,2.70693506 C10.1410547,2.70693506 10.2675,2.75898701 10.3717969,2.86274026 C10.4757812,2.96653247 10.5278906,3.09264935 10.5278906,3.24093506 C10.5279297,3.3892987 10.4758203,3.51537662 10.3720703,3.61897403 Z" id="Shape"></path>
                            <path d="M19.7623437,6.7447013 C19.3383984,6.04028571 18.8012891,5.35792208 18.1508203,4.69792208 C17.5005859,4.03796104 16.8218359,3.47080519 16.1154688,2.9961039 L15.4128516,4.24196104 C16.6544531,5.09474026 17.7028906,6.18494805 18.5577734,7.51231169 C17.6583984,8.90641558 16.5373437,10.0447792 15.1956641,10.9271688 C13.8535547,11.8100649 12.3944141,12.3178052 10.818125,12.4511299 L9.99277344,13.9194935 C11.6434375,13.9194935 13.2029297,13.5673636 14.67125,12.8628312 C16.1396094,12.1585714 17.4317188,11.1684935 18.546875,9.89302597 C19.0672656,9.29220779 19.4724609,8.75462338 19.7625391,8.28 C19.9112109,8.02768831 19.9855078,7.77171429 19.9855078,7.51238961 C19.9853906,7.25287013 19.9110937,6.99701299 19.7623437,6.7447013 Z" id="Path"></path>
                        </g>
                    </g>
                </g>
            </g>
        </g>
    </symbol>

    <symbol id="trash" viewBox="0 0 9 12">
        <g stroke="none" stroke-width="1" fill="none" fill-rule="evenodd">
            <g transform="translate(-1015.000000, -532.000000)" fill="currentColor" fill-rule="nonzero">
                <g id="Group-5" transform="translate(272.000000, 190.000000)">
                    <g id="Group-8" transform="translate(281.000000, 0.000000)">
                        <g id="Group-11" transform="translate(60.000000, 327.000000)">
                            <g id="Group-13" transform="translate(382.997400, 5.000000)">
                                <g id="Group-17" transform="translate(19.000000, 8.000000)">
                                    <g transform="translate(0.000000, 2.000000)">
                                        <path d="M2.58132788,1.09090909 C2.58132788,0.733184904 2.85534315,0.471744472 3.20645347,0.471744472 L5.77625099,0.471744472 C6.1272483,0.471744472 6.40126357,0.733184904 6.40126357,1.09090909 L6.40126357,1.76904177 L6.86428608,1.76904177 L6.86428608,1.09090909 C6.86428608,0.473126536 6.38261155,0 5.77625099,0 L3.20645347,0 C2.60009294,0 2.11830537,0.473126536 2.11830537,1.09090909 L2.11830537,1.76904177 L2.58132788,1.76904177 L2.58132788,1.09090909 Z" id="Path"></path>
                                        <path d="M0.578778135,3.18427518 L8.40381332,3.18427518 C8.72349777,3.18427518 8.98259145,2.92030098 8.98259145,2.59459459 C8.98259145,2.26888821 8.72349777,2.004914 8.40381332,2.004914 L0.578778135,2.004914 C0.25909365,2.004914 0,2.26888821 0,2.59459459 C0,2.92030098 0.25909365,3.18427518 0.578778135,3.18427518 Z" id="Path"></path>
                                        <path d="M1.75374295,12 L7.22896151,12 C7.75687049,12 8.16653688,11.5268735 8.16653688,10.9385749 L8.16653688,3.65601966 L0.816054569,3.65601966 L0.816054569,10.9385749 C0.816054569,11.5268735 1.22572097,12 1.75374295,12 Z M5.96717997,4.78228656 C5.96717997,4.65202703 6.07084003,4.54641432 6.19869123,4.54641432 C6.32654242,4.54641432 6.43020248,4.65202703 6.43020248,4.78228656 L6.43020248,10.3547681 C6.43020248,10.4850277 6.32654242,10.5906404 6.19869123,10.5906404 C6.07084003,10.5906404 5.96717997,10.4850277 5.96717997,10.3547681 L5.96717997,4.78228656 Z M4.25978447,4.78228656 C4.25978447,4.65202703 4.36344453,4.54641432 4.49129573,4.54641432 C4.61914692,4.54641432 4.72280698,4.65202703 4.72280698,4.78228656 L4.72280698,10.3547681 C4.72280698,10.4850277 4.61914692,10.5906404 4.49129573,10.5906404 C4.36344453,10.5906404 4.25978447,10.4850277 4.25978447,10.3547681 L4.25978447,4.78228656 Z M2.55238897,4.78228656 C2.55238897,4.65202703 2.65604904,4.54641432 2.78390023,4.54641432 C2.91175142,4.54641432 3.01541148,4.65202703 3.01541148,4.78228656 L3.01541148,10.3547681 C3.01541148,10.4850277 2.91175142,10.5906404 2.78390023,10.5906404 C2.65604904,10.5906404 2.55238897,10.4850277 2.55238897,10.3547681 L2.55238897,4.78228656 Z" id="Shape"></path>
                                    </g>
                                </g>
                            </g>
                        </g>
                    </g>
                </g>
            </g>
        </g>
    </symbol>

    <symbol id="document" viewBox="0 0 15 19">
        <g id="Page-1" stroke="none" stroke-width="1" fill="none" fill-rule="evenodd">
            <g transform="translate(-633.000000, -740.000000)" fill="currentColor" fill-rule="nonzero">
                <g id="Group-5" transform="translate(272.000000, 190.000000)">
                    <g id="Group-8" transform="translate(281.000000, 0.000000)">
                        <g id="Group-11" transform="translate(60.000000, 540.000000)">
                            <g transform="translate(20.000000, 10.000000)">
                                <path d="M10.285625,0 L0.15625,0 L0.15625,19 L14.84375,19 L14.84375,4.6189 L10.285625,0 Z M8.28125,7.28333333 L10.46875,7.28333333 C10.64125,7.28333333 10.78125,7.42488333 10.78125,7.6 C10.78125,7.77511667 10.64125,7.91666667 10.46875,7.91666667 L8.28125,7.91666667 C8.10875,7.91666667 7.96875,7.77511667 7.96875,7.6 C7.96875,7.42488333 8.10875,7.28333333 8.28125,7.28333333 Z M8.59375,9.81666667 C8.59375,9.99178333 8.45375,10.1333333 8.28125,10.1333333 L5.15625,10.1333333 C4.98375,10.1333333 4.84375,9.99178333 4.84375,9.81666667 C4.84375,9.64155 4.98375,9.5 5.15625,9.5 L8.28125,9.5 C8.45375,9.5 8.59375,9.64155 8.59375,9.81666667 Z M6.940625,7.37516667 C6.996875,7.43501667 7.03125,7.51735 7.03125,7.6 C7.03125,7.68233333 6.996875,7.76466667 6.940625,7.82483333 C6.88125,7.88183333 6.8,7.91666667 6.71875,7.91666667 C6.6375,7.91666667 6.55625,7.88183333 6.496875,7.82483333 C6.440625,7.76466667 6.40625,7.68233333 6.40625,7.6 C6.40625,7.51735 6.440625,7.43501667 6.496875,7.37516667 C6.615625,7.258 6.825,7.258 6.940625,7.37516667 Z M3.59375,4.75 L6.40625,4.75 C6.57875,4.75 6.71875,4.89155 6.71875,5.06666667 C6.71875,5.24178333 6.57875,5.38333333 6.40625,5.38333333 L3.59375,5.38333333 C3.42125,5.38333333 3.28125,5.24178333 3.28125,5.06666667 C3.28125,4.89155 3.42125,4.75 3.59375,4.75 Z M3.59375,7.28333333 L5.15625,7.28333333 C5.32875,7.28333333 5.46875,7.42488333 5.46875,7.6 C5.46875,7.77511667 5.32875,7.91666667 5.15625,7.91666667 L3.59375,7.91666667 C3.42125,7.91666667 3.28125,7.77511667 3.28125,7.6 C3.28125,7.42488333 3.42125,7.28333333 3.59375,7.28333333 Z M3.371875,9.59183333 C3.4875,9.47466667 3.7,9.47466667 3.815625,9.59183333 C3.871875,9.65168333 3.90625,9.73401667 3.90625,9.81666667 C3.90625,9.899 3.871875,9.98133333 3.815625,10.0415 C3.75625,10.0985 3.675,10.1333333 3.59375,10.1333333 C3.5125,10.1333333 3.43125,10.0985 3.371875,10.0415 C3.315625,9.98133333 3.28125,9.899 3.28125,9.81666667 C3.28125,9.73085 3.315625,9.65168333 3.371875,9.59183333 Z M3.815625,14.4748333 C3.75625,14.5318333 3.678125,14.5666667 3.59375,14.5666667 C3.5125,14.5666667 3.43125,14.5318333 3.371875,14.4748333 C3.3125,14.4146667 3.28125,14.3355 3.28125,14.25 C3.28125,14.1641833 3.315625,14.0821667 3.371875,14.0251667 C3.490625,13.908 3.7,13.908 3.815625,14.0283333 C3.871875,14.0853333 3.90625,14.1645 3.90625,14.25 C3.90625,14.3323333 3.871875,14.4146667 3.815625,14.4748333 Z M8.28125,14.5666667 L5.15625,14.5666667 C4.98375,14.5666667 4.84375,14.4251167 4.84375,14.25 C4.84375,14.0748833 4.98375,13.9333333 5.15625,13.9333333 L8.28125,13.9333333 C8.45375,13.9333333 8.59375,14.0748833 8.59375,14.25 C8.59375,14.4251167 8.45375,14.5666667 8.28125,14.5666667 Z M8.90625,12.35 L3.59375,12.35 C3.42125,12.35 3.28125,12.20845 3.28125,12.0333333 C3.28125,11.8582167 3.42125,11.7166667 3.59375,11.7166667 L8.90625,11.7166667 C9.07875,11.7166667 9.21875,11.8582167 9.21875,12.0333333 C9.21875,12.20845 9.07875,12.35 8.90625,12.35 Z M12.03125,14.5666667 L9.84375,14.5666667 C9.67125,14.5666667 9.53125,14.4251167 9.53125,14.25 C9.53125,14.0748833 9.67125,13.9333333 9.84375,13.9333333 L12.03125,13.9333333 C12.20375,13.9333333 12.34375,14.0748833 12.34375,14.25 C12.34375,14.4251167 12.20375,14.5666667 12.03125,14.5666667 Z M10.15625,12.0333333 C10.15625,11.9506833 10.190625,11.86835 10.246875,11.8085 C10.3625,11.6913333 10.571875,11.6913333 10.690625,11.8085 C10.746875,11.86835 10.78125,11.9506833 10.78125,12.0333333 C10.78125,12.1156667 10.746875,12.198 10.690625,12.2581667 C10.63125,12.3151667 10.553125,12.35 10.46875,12.35 C10.384375,12.35 10.30625,12.3180167 10.246875,12.2581667 C10.190625,12.198 10.15625,12.1156667 10.15625,12.0333333 Z M12.253125,12.2581667 C12.19375,12.3151667 12.115625,12.35 12.03125,12.35 C11.946875,12.35 11.86875,12.3151667 11.809375,12.2581667 C11.753125,12.198 11.71875,12.1156667 11.71875,12.0333333 C11.71875,11.9506833 11.753125,11.86835 11.809375,11.8085 C11.925,11.6913333 12.1375,11.6913333 12.253125,11.8085 C12.309375,11.86835 12.34375,11.9506833 12.34375,12.0333333 C12.34375,12.1156667 12.309375,12.198 12.253125,12.2581667 Z M12.03125,10.1333333 L9.84375,10.1333333 C9.67125,10.1333333 9.53125,9.99178333 9.53125,9.81666667 C9.53125,9.64155 9.67125,9.5 9.84375,9.5 L12.03125,9.5 C12.20375,9.5 12.34375,9.64155 12.34375,9.81666667 C12.34375,9.99178333 12.20375,10.1333333 12.03125,10.1333333 Z M12.253125,7.82483333 C12.19375,7.88183333 12.1125,7.91666667 12.03125,7.91666667 C11.95,7.91666667 11.86875,7.88183333 11.809375,7.82483333 C11.753125,7.76466667 11.71875,7.68233333 11.71875,7.6 C11.71875,7.51735 11.753125,7.43501667 11.809375,7.37516667 C11.928125,7.258 12.134375,7.258 12.253125,7.37516667 C12.3125,7.43501667 12.34375,7.51735 12.34375,7.6 C12.34375,7.68233333 12.3125,7.76466667 12.253125,7.82483333 Z M9.84375,5.06666667 L9.84375,0.633333333 L14.21875,5.06666667 L9.84375,5.06666667 Z" id="Shape"></path>
                            </g>
                        </g>
                    </g>
                </g>
            </g>
        </g>
    </symbol>

    <symbol id="reload-arrow" viewBox="0 0 12 12">
        <g stroke="none" stroke-width="1" fill="none" fill-rule="evenodd">
            <g transform="translate(-1007.000000, -505.000000)" fill="#FFFFFF" fill-rule="nonzero">
                <g id="Group-5" transform="translate(272.000000, 190.000000)">
                    <g id="Group-8" transform="translate(281.000000, 0.000000)">
                        <g id="Group-11" transform="translate(60.000000, 300.000000)">
                            <g id="Group-13" transform="translate(384.000000, 5.000000)">
                                <g id="Group-3" transform="translate(10.000000, 8.000000)">
                                    <g transform="translate(6.000000, 8.000000) rotate(180.000000) translate(-6.000000, -8.000000) translate(0.000000, 2.000000)">
                                        <path d="M10.2448163,1.75991837 C7.90318367,-0.584571429 4.10440816,-0.586911565 1.75989116,1.75472109 C-0.584571429,4.09635374 -0.586938776,7.89510204 1.75472109,10.2396735 C4.09629932,12.5840816 7.89515646,12.5864218 10.2396463,10.2447891 C12.5841361,7.9032381 12.5864762,4.10440816 10.2448163,1.75991837 Z M5.99972789,10.0044898 C3.79023129,10.0044898 1.99265306,8.20688435 1.99265306,5.99744218 C1.99265306,5.29042177 2.17959184,4.59510204 2.53333333,3.98672109 L2.22302041,3.63254422 C2.17814966,3.58136054 2.16405442,3.51012245 2.18590476,3.4457415 C2.20780952,3.38133333 2.26244898,3.33344218 2.32919728,3.32021769 L4.43902041,2.86397279 C4.50571429,2.8507483 4.57447619,2.87409524 4.61929252,2.92527891 C4.66410884,2.97640816 4.67831293,3.04756463 4.65635374,3.11202721 L4.03646259,5.26402721 C4.01455782,5.32843537 3.95997279,5.37627211 3.89322449,5.38955102 C3.8265034,5.40277551 3.7577415,5.37945578 3.71292517,5.3282449 L3.41918367,4.99755102 C3.29572789,5.31616327 3.23311565,5.65251701 3.23311565,5.99738776 C3.23311565,7.52288435 4.47420408,8.76397279 5.99972789,8.764 C7.5252517,8.764 8.76634014,7.52293878 8.76634014,5.99736054 C8.76634014,4.54193197 7.62941497,3.32917007 6.17801361,3.23643537 C6.07776871,3.23006803 5.99972789,3.14688435 5.99972789,3.04639456 L5.99972789,2.18538776 C5.99972789,2.13327891 6.02114286,2.08340136 6.05888435,2.04745578 C6.09668027,2.01153741 6.14753741,1.99259864 6.19959184,1.99521088 C7.22606803,2.04585034 8.18408163,2.48511565 8.89719728,3.23194558 C9.61278912,3.98138776 10.0068299,4.96348299 10.0068299,5.99738776 C10.0068299,8.20688435 8.20919728,10.0044898 5.99972789,10.0044898 Z" id="Shape"></path>
                                    </g>
                                </g>
                            </g>
                        </g>
                    </g>
                </g>
            </g>
        </g>
    </symbol>

    <symbol id="pencil-edit" viewBox="0 0 12 13">
        <g id="Page-1" stroke="none" stroke-width="1" fill="none" fill-rule="evenodd">
            <g transform="translate(-919.000000, -333.000000)" fill="currentColor" fill-rule="nonzero">
                <g id="Group-5" transform="translate(272.000000, 190.000000)">
                    <g id="Group-8" transform="translate(281.000000, 0.000000)">
                        <g id="Group-11" transform="translate(60.000000, 129.000000)">
                            <g id="Group-12" transform="translate(282.000000, 5.734644)">
                                <g id="Group-3" transform="translate(24.000000, 8.000000)">
                                    <g id="Group-16">
                                        <g transform="translate(0.000000, 1.000000)">
                                            <path d="M7.46048393,2.00664137 L9.90108885,4.45648577 L3.72324386,10.6577761 L1.28402268,8.20793169 L7.46048393,2.00664137 Z M11.7530359,1.41579507 L10.66462,0.323248577 C10.2439849,-0.0989829222 9.5609603,-0.0989829222 9.13889603,0.323248577 L8.09630246,1.36979886 L10.5369074,3.81966603 L11.7530359,2.5989222 C12.0792817,2.27141556 12.0792817,1.74327894 11.7530359,1.41579507 Z M0.00680529301,11.6513852 C-0.037610586,11.852038 0.142865784,12.031833 0.342782609,11.9830361 L3.06242722,11.3211233 L0.623206049,8.87127894 L0.00680529301,11.6513852 Z" id="Shape"></path>
                                        </g>
                                    </g>
                                </g>
                            </g>
                        </g>
                    </g>
                </g>
            </g>
        </g>
    </symbol>

    <symbol id="diploma" viewBox="0 0 15 19">
        <g stroke="none" stroke-width="1" fill="none" fill-rule="evenodd">
            <g transform="translate(-607.000000, -97.000000)" fill="currentColor" fill-rule="nonzero">
                <g transform="translate(607.000000, 95.000000)">
                    <g transform="translate(0.000000, 2.000000)">
                        <path d="M11.3253125,13.9124333 C11.3203125,13.9159167 11.3146875,13.9181333 11.3096875,13.92225 C11.2828125,13.9437833 11.259375,13.9722833 11.2459375,14.0109167 C11.1275,14.3488 10.8225,14.5666667 10.46875,14.5666667 C10.115,14.5666667 9.81,14.3488 9.6915625,14.0109167 C9.6778125,13.9719667 9.654375,13.94315 9.6271875,13.9213 C9.623125,13.9181333 9.61875,13.9162333 9.6146875,13.9133833 C9.591875,13.8978667 9.5675,13.88805 9.5428125,13.8826667 C9.5390625,13.8820333 9.5353125,13.8817167 9.5315625,13.8810833 L9.5315625,16.33525 L10.4690625,15.38525 L11.4065625,16.33525 L11.4065625,13.8814 C11.4021875,13.8820333 11.398125,13.88235 11.39375,13.8829833 C11.3703125,13.8886833 11.3471875,13.8981833 11.3253125,13.9124333 Z" id="Path"></path>
                        <path d="M10.285625,0 L0.15625,0 L0.15625,19 L14.84375,19 L14.84375,4.6189 L10.285625,0 Z M7.96875,7.28333333 L10.15625,7.28333333 C10.3290625,7.28333333 10.46875,7.42488333 10.46875,7.6 C10.46875,7.77511667 10.3290625,7.91666667 10.15625,7.91666667 L7.96875,7.91666667 C7.7959375,7.91666667 7.65625,7.77511667 7.65625,7.6 C7.65625,7.42488333 7.7959375,7.28333333 7.96875,7.28333333 Z M6.71875,7.6 C6.71875,7.68233333 6.684375,7.76466667 6.628125,7.82166667 C6.56875,7.88468333 6.4875,7.91666667 6.40625,7.91666667 C6.325,7.91666667 6.2434375,7.88183333 6.184375,7.82483333 C6.125,7.76466667 6.09375,7.68233333 6.09375,7.6 C6.09375,7.51735 6.125,7.43501667 6.184375,7.37833333 C6.3,7.258 6.509375,7.258 6.628125,7.37516667 C6.684375,7.43501667 6.71875,7.51735 6.71875,7.6 Z M3.28125,4.75 L6.09375,4.75 C6.2665625,4.75 6.40625,4.89155 6.40625,5.06666667 C6.40625,5.24178333 6.2665625,5.38333333 6.09375,5.38333333 L3.28125,5.38333333 C3.1084375,5.38333333 2.96875,5.24178333 2.96875,5.06666667 C2.96875,4.89155 3.1084375,4.75 3.28125,4.75 Z M3.28125,7.28333333 L4.84375,7.28333333 C5.0165625,7.28333333 5.15625,7.42488333 5.15625,7.6 C5.15625,7.77511667 5.0165625,7.91666667 4.84375,7.91666667 L3.28125,7.91666667 C3.1084375,7.91666667 2.96875,7.77511667 2.96875,7.6 C2.96875,7.42488333 3.1084375,7.28333333 3.28125,7.28333333 Z M3.059375,9.9085 C3.178125,9.79133333 3.384375,9.79133333 3.503125,9.9085 C3.5621875,9.96835 3.59375,10.0506833 3.59375,10.1333333 C3.59375,10.2156667 3.5621875,10.298 3.503125,10.3581667 C3.44375,10.4151667 3.3625,10.45 3.28125,10.45 C3.2,10.45 3.1184375,10.4151667 3.059375,10.3581667 C3.0028125,10.298 2.96875,10.2156667 2.96875,10.1333333 C2.96875,10.0475167 3,9.96835 3.059375,9.9085 Z M3.845625,15.1259 C3.8359375,15.4166 3.5190625,15.5255333 3.3121875,15.3497833 C3.02,15.1015167 2.7275,14.8535667 2.4353125,14.6053 C2.1259375,14.3424667 2.570625,13.8969167 2.8771875,14.1572167 C3.0065625,14.2671 3.1359375,14.3766667 3.265,14.48655 C3.34875,13.7705667 3.5790625,13.0802333 4.26375,12.7189167 C4.620625,12.5308167 4.936875,13.0773833 4.5790625,13.2658 C3.9009375,13.62395 3.8684375,14.4396833 3.845625,15.1259 Z M6.6425,14.6486833 C6.535,14.4539333 6.06125,14.8276 5.9340625,14.8757333 C5.755625,14.9431833 5.59625,14.96915 5.4065625,14.9473 C5.04125,14.9048667 4.7328125,14.6654667 4.5725,14.3355 C4.395,13.9707 4.93375,13.6496 5.1121875,14.0159833 C5.410625,14.62905 5.915625,14.10465 6.3421875,13.9824167 C6.6690625,13.8886833 7.02,14.0346667 7.1821875,14.3291667 C7.3790625,14.6857333 6.8390625,15.00525 6.6425,14.6486833 Z M7.03125,10.45 L4.84375,10.45 C4.6709375,10.45 4.53125,10.30845 4.53125,10.1333333 C4.53125,9.95821667 4.6709375,9.81666667 4.84375,9.81666667 L7.03125,9.81666667 C7.2040625,9.81666667 7.34375,9.95821667 7.34375,10.1333333 C7.34375,10.30845 7.2040625,10.45 7.03125,10.45 Z M12.7328125,12.5042167 C12.66,12.5305 12.6278125,12.5862333 12.615,12.6172667 C12.6025,12.6483 12.5859375,12.711 12.619375,12.78225 C12.741875,13.04255 12.7246875,13.34275 12.5740625,13.5837333 C12.4509375,13.78165 12.25,13.9102167 12.03125,13.95455 L12.03125,17.8641167 L10.46875,16.2807833 L8.90625,17.8641167 L8.90625,13.9542333 C8.6878125,13.9095833 8.4865625,13.78165 8.3634375,13.58405 C8.213125,13.3424333 8.1959375,13.04255 8.318125,12.7819333 C8.35125,12.711 8.335,12.6483 8.3225,12.6172667 C8.3096875,12.5859167 8.2775,12.5305 8.2046875,12.5042167 C7.87125,12.3842 7.65625,12.0751333 7.65625,11.7166667 C7.65625,11.3582 7.87125,11.0491333 8.2046875,10.9291167 C8.2775,10.9028333 8.3096875,10.8471 8.3225,10.8160667 C8.335,10.7850333 8.3515625,10.7223333 8.318125,10.6510833 C8.195625,10.3907833 8.2128125,10.0905833 8.3634375,9.84928333 C8.581875,9.49936667 9.043125,9.35623333 9.4175,9.53768333 C9.5096875,9.58265 9.6453125,9.5551 9.6915625,9.42273333 C9.81,9.08453333 10.115,8.86666667 10.46875,8.86666667 C10.8225,8.86666667 11.1275,9.08453333 11.2459375,9.42241667 C11.2921875,9.55478333 11.4275,9.58201667 11.5203125,9.53736667 C11.8934375,9.35718333 12.355625,9.49936667 12.5740625,9.84896667 C12.724375,10.0905833 12.7415625,10.3904667 12.619375,10.6510833 C12.58625,10.7220167 12.6025,10.7847167 12.615,10.81575 C12.6278125,10.8471 12.66,10.9025167 12.7328125,10.9288 C13.06625,11.0491333 13.28125,11.3582 13.28125,11.7166667 C13.28125,12.0751333 13.06625,12.3842 12.7328125,12.5042167 Z M11.40625,7.6 C11.40625,7.51735 11.4403125,7.43501667 11.496875,7.37516667 C11.615625,7.258 11.821875,7.258 11.940625,7.37516667 C11.996875,7.43501667 12.03125,7.51735 12.03125,7.6 C12.03125,7.68233333 11.996875,7.76466667 11.940625,7.82483333 C11.88125,7.88183333 11.8,7.91666667 11.71875,7.91666667 C11.6375,7.91666667 11.5559375,7.88183333 11.496875,7.82483333 C11.4403125,7.76466667 11.40625,7.68233333 11.40625,7.6 Z M9.53125,4.75 L9.53125,0.316666667 L13.90625,4.75 L9.53125,4.75 Z" id="Shape"></path>
                        <path d="M12.5234375,11.5257167 C12.3040625,11.4468667 12.126875,11.2765 12.0378125,11.0583167 C11.9484375,10.8401333 11.954375,10.5925 12.0546875,10.3790667 C12.0940625,10.29515 12.0715625,10.2283333 12.045625,10.1871667 C11.9909375,10.0997667 11.886875,10.0620833 11.78875,10.1092667 C11.676875,10.1631 11.5578125,10.1903333 11.4346875,10.1903333 C11.08625,10.1903333 10.77375,9.96676667 10.6571875,9.63426667 C10.6146875,9.51298333 10.51125,9.5 10.46875,9.5 C10.42625,9.5 10.3228125,9.51298333 10.2803125,9.63458333 C10.16375,9.96708333 9.85125,10.19065 9.5028125,10.19065 C9.3796875,10.19065 9.2609375,10.1634167 9.1490625,10.1095833 C9.05,10.0627167 8.9465625,10.1000833 8.891875,10.1874833 C8.8659375,10.2289667 8.8434375,10.2957833 8.8828125,10.3790667 C8.9828125,10.5928167 8.9890625,10.8401333 8.8996875,11.0586333 C8.810625,11.2765 8.6334375,11.4471833 8.4140625,11.5260333 C8.2940625,11.5687833 8.28125,11.6736 8.28125,11.7166667 C8.28125,11.7597333 8.2940625,11.86455 8.4140625,11.9076167 C8.6334375,11.9864667 8.810625,12.1568333 8.8996875,12.3750167 C8.9890625,12.5932 8.983125,12.8408333 8.8828125,13.0542667 C8.8434375,13.1381833 8.8659375,13.205 8.891875,13.2461667 C8.9378125,13.31995 9.01875,13.3547833 9.1015625,13.33705 L9.17375,13.31425 C9.260625,13.2702333 9.38,13.2426833 9.503125,13.2426833 C9.8515625,13.2426833 10.1640625,13.46625 10.280625,13.7990667 C10.3228125,13.92035 10.42625,13.9333333 10.46875,13.9333333 C10.51125,13.9333333 10.6146875,13.92035 10.6571875,13.79875 C10.77375,13.4659333 11.08625,13.2423667 11.4346875,13.2423667 C11.495,13.2423667 11.5540625,13.2493333 11.6121875,13.2626333 C11.6296875,13.2664333 11.6459375,13.2746667 11.663125,13.2797333 C11.6996875,13.2905 11.7365625,13.3 11.7715625,13.31615 L11.8396875,13.3376833 C11.9215625,13.3535167 12.0003125,13.3183667 12.045625,13.24585 C12.0715625,13.2043667 12.0940625,13.13755 12.0546875,13.0542667 C11.9546875,12.8405167 11.9484375,12.5932 12.0378125,12.3747 C12.126875,12.1568333 12.3040625,11.98615 12.5234375,11.9073 C12.6434375,11.86455 12.65625,11.7597333 12.65625,11.7166667 C12.65625,11.6736 12.6434375,11.5687833 12.5234375,11.5257167 Z" id="Path"></path>
                    </g>
                </g>
            </g>
        </g>
    </symbol>

    <symbol id="folder" viewBox="0 0 15 15">
        <g stroke="none" stroke-width="1" fill="none" fill-rule="evenodd">
            <g transform="translate(-394.000000, -99.000000)" fill="currentColor" fill-rule="nonzero">
                <g transform="translate(394.000000, 95.000000)">
                    <g transform="translate(0.000000, 4.000000)">
                        <path d="M13.75,9.56896552 L7.75,9.56896552 L7.75,13.7068966 L13.75,13.7068966 L13.75,9.56896552 Z M8.75,10.3448276 L11.25,10.3448276 L11.25,10.862069 L8.75,10.862069 L8.75,10.3448276 Z M12.75,12.9310345 L8.75,12.9310345 L8.75,12.4137931 L12.75,12.4137931 L12.75,12.9310345 Z M12.75,11.8965517 L8.75,11.8965517 L8.75,11.3793103 L12.75,11.3793103 L12.75,11.8965517 Z" id="Shape"></path>
                        <path d="M7.25,1.55172414 L6.25,0 L1,0 L1,0.25862069 L1,0.517241379 L1,1.03448276 L0.5,1.03448276 L0.5,1.55172414 L0.5,2.06896552 L0,2.06896552 L0,15 L15,15 L15,5.94827586 L15,5.43103448 L15,3.62068966 L15,2.06896552 L15,1.81034483 L15,1.55172414 L7.25,1.55172414 Z M14.25,14.2241379 L7.25,14.2241379 L7.25,9.05172414 L14.25,9.05172414 L14.25,14.2241379 Z M14.5,5.43103448 L7.87875,5.43103448 L6.986,4.13793103 L14.5,4.13793103 L14.5,5.43103448 Z M14.5,3.62068966 L6.25,3.62068966 L5.25,2.06896552 L1,2.06896552 L1,1.55172414 L5.5,1.55172414 L6.5,3.10344828 L14.5,3.10344828 L14.5,3.62068966 Z M14.5,2.5862069 L6.75,2.5862069 L5.75,1.03448276 L1.5,1.03448276 L1.5,0.517241379 L6,0.517241379 L7,2.06896552 L14.5,2.06896552 L14.5,2.5862069 Z" id="Shape"></path>
                    </g>
                </g>
            </g>
        </g>
    </symbol>

    <symbol id="save" viewBox="0 0 25 25">
        <g stroke="none" stroke-width="1" fill="none" fill-rule="evenodd">
            <g transform="translate(-776.000000, -297.000000)" fill="currentColor" fill-rule="nonzero">
                <g transform="translate(766.000000, 286.000000)">
                    <g transform="translate(10.000000, 11.000000)">
                        <rect id="Rectangle" x="14.0306122" y="2.55102041" width="3.06122449" height="5.10204082"></rect>
                        <path d="M20.3642857,0 L0.255102041,0 L0.255102041,25 L24.744898,25 L24.744898,4.38061224 L20.3642857,0 Z M5.35714286,1.02040816 L18.622449,1.02040816 L18.622449,9.18367347 L5.35714286,9.18367347 L5.35714286,1.02040816 Z M20.1530612,23.9795918 L4.33673469,23.9795918 L4.33673469,13.2653061 L20.1530612,13.2653061 L20.1530612,23.9795918 Z" id="Shape"></path>
                        <path d="M6.8877551,16.3265306 L10.4591837,16.3265306 C10.7413265,16.3265306 10.9693878,16.0984694 10.9693878,15.8163265 C10.9693878,15.5341837 10.7413265,15.3061224 10.4591837,15.3061224 L6.8877551,15.3061224 C6.60561224,15.3061224 6.37755102,15.5341837 6.37755102,15.8163265 C6.37755102,16.0984694 6.60561224,16.3265306 6.8877551,16.3265306 Z" id="Path"></path>
                        <path d="M6.8877551,18.3673469 L11.9897959,18.3673469 C12.2719388,18.3673469 12.5,18.1392857 12.5,17.8571429 C12.5,17.575 12.2719388,17.3469388 11.9897959,17.3469388 L6.8877551,17.3469388 C6.60561224,17.3469388 6.37755102,17.575 6.37755102,17.8571429 C6.37755102,18.1392857 6.60561224,18.3673469 6.8877551,18.3673469 Z" id="Path"></path>
                        <path d="M13.5204082,18.3673469 C13.6581633,18.3673469 13.7857143,18.3112245 13.8826531,18.2193878 C13.9744898,18.122449 14.0306122,17.9897959 14.0306122,17.8571429 C14.0306122,17.7244898 13.9744898,17.5913265 13.8826531,17.494898 C13.6938776,17.3061224 13.3520408,17.3061224 13.1632653,17.494898 C13.0663265,17.5913265 13.0102041,17.7188776 13.0102041,17.8571429 C13.0102041,17.994898 13.0658163,18.122449 13.1581633,18.2193878 C13.2545918,18.3112245 13.3821429,18.3673469 13.5204082,18.3673469 Z" id="Path"></path>
                    </g>
                </g>
            </g>
        </g>
    </symbol>

    <symbol id="vertical-ellipsis" viewBox="0 0 5 20">
        <g stroke="none" stroke-width="1" fill="none" fill-rule="evenodd">
            <g transform="translate(-771.000000, -470.000000)" fill="currentColor" fill-rule="nonzero">
                <g transform="translate(110.000000, 455.000000)">
                    <g>
                        <g transform="translate(661.000000, 15.000000)">
                            <circle cx="2.5" cy="10.5" r="2.5"></circle>
                            <circle cx="2.5" cy="17.5" r="2.5"></circle>
                            <circle cx="2.5" cy="2.5" r="2.5"></circle>
                        </g>
                    </g>
                </g>
            </g>
        </g>
    </symbol>

    <symbol id="save" viewBox="0 0 25 25">
        <g stroke="none" stroke-width="1" fill="none" fill-rule="evenodd">
            <g transform="translate(766.000000, 286.000000)">
                <g transform="translate(10.000000, 11.000000)">
                    <rect x="14.0306122" y="2.55102041" width="3.06122449" height="5.10204082"></rect>
                    <path d="M20.3642857,0 L0.255102041,0 L0.255102041,25 L24.744898,25 L24.744898,4.38061224 L20.3642857,0 Z M5.35714286,1.02040816 L18.622449,1.02040816 L18.622449,9.18367347 L5.35714286,9.18367347 L5.35714286,1.02040816 Z M20.1530612,23.9795918 L4.33673469,23.9795918 L4.33673469,13.2653061 L20.1530612,13.2653061 L20.1530612,23.9795918 Z"></path>
                    <path d="M6.8877551,16.3265306 L10.4591837,16.3265306 C10.7413265,16.3265306 10.9693878,16.0984694 10.9693878,15.8163265 C10.9693878,15.5341837 10.7413265,15.3061224 10.4591837,15.3061224 L6.8877551,15.3061224 C6.60561224,15.3061224 6.37755102,15.5341837 6.37755102,15.8163265 C6.37755102,16.0984694 6.60561224,16.3265306 6.8877551,16.3265306 Z"></path>
                    <path d="M6.8877551,18.3673469 L11.9897959,18.3673469 C12.2719388,18.3673469 12.5,18.1392857 12.5,17.8571429 C12.5,17.575 12.2719388,17.3469388 11.9897959,17.3469388 L6.8877551,17.3469388 C6.60561224,17.3469388 6.37755102,17.575 6.37755102,17.8571429 C6.37755102,18.1392857 6.60561224,18.3673469 6.8877551,18.3673469 Z"></path>
                    <path d="M13.5204082,18.3673469 C13.6581633,18.3673469 13.7857143,18.3112245 13.8826531,18.2193878 C13.9744898,18.122449 14.0306122,17.9897959 14.0306122,17.8571429 C14.0306122,17.7244898 13.9744898,17.5913265 13.8826531,17.494898 C13.6938776,17.3061224 13.3520408,17.3061224 13.1632653,17.494898 C13.0663265,17.5913265 13.0102041,17.7188776 13.0102041,17.8571429 C13.0102041,17.994898 13.0658163,18.122449 13.1581633,18.2193878 C13.2545918,18.3112245 13.3821429,18.3673469 13.5204082,18.3673469 Z"></path>
                </g>
            </g>
        </g>
    </symbol>

    <symbol id="cancel-dark" viewBox="0 0 20 20">
        <g stroke="none" stroke-width="1" fill="none" fill-rule="evenodd">
            <g transform="translate(-981.000000, -196.000000)">
                <g transform="translate(439.000000, 196.000000)">
                    <g transform="translate(542.000000, 0.000000)">
                        <circle fill="currentColor" fill-rule="nonzero" cx="10" cy="10" r="10"></circle>
                        <polyline stroke="#ffffff" stroke-width="0.8" stroke-linecap="round" points="6.4 13.6 10 10 13.6 6.4"></polyline>
                        <polyline stroke="#ffffff" stroke-width="0.8" stroke-linecap="round" points="6.4 6.4 10 10 13.6 13.6"></polyline>
                    </g>
                </g>
            </g>
        </g>
    </symbol>

    <symbol id="calender" viewBox="0 0 15 15">
        <g stroke="none" stroke-width="1" fill="none" fill-rule="evenodd">
            <g transform="translate(-1256.000000, -186.000000)" fill="currentColor" fill-rule="nonzero">
                <g transform="translate(1055.000000, 172.000000)">
                    <g transform="translate(201.000000, 11.000000)">
                        <g transform="translate(0.000000, 3.000000)">
                            <path d="M5.41139121,8.26107362 C5.41139121,8.07349693 5.25574268,7.92153374 5.06369247,7.92153374 L3.85035565,7.92153374 C3.6585251,7.92153374 3.50284519,8.07349693 3.50284519,8.26107362 L3.50284519,9.44696319 C3.50284519,9.63478528 3.6585251,9.78680982 3.85035565,9.78680982 L5.06369247,9.78680982 C5.25574268,9.78680982 5.41139121,9.63478528 5.41139121,9.44696319 L5.41139121,8.26107362 L5.41139121,8.26107362 Z"></path>
                            <path d="M8.44368201,8.26107362 C8.44368201,8.07349693 8.28800209,7.92153374 8.09632845,7.92153374 L6.88283473,7.92153374 C6.69100418,7.92153374 6.53532427,8.07349693 6.53532427,8.26107362 L6.53532427,9.44696319 C6.53532427,9.63478528 6.69100418,9.78680982 6.88283473,9.78680982 L8.09632845,9.78680982 C8.28800209,9.78680982 8.44368201,9.63478528 8.44368201,9.44696319 L8.44368201,8.26107362 Z"></path>
                            <path d="M11.4761297,8.26107362 C11.4761297,8.07349693 11.3204498,7.92153374 11.1286192,7.92153374 L9.91528243,7.92153374 C9.72323222,7.92153374 9.56758368,8.07349693 9.56758368,8.26107362 L9.56758368,9.44696319 C9.56758368,9.63478528 9.72323222,9.78680982 9.91528243,9.78680982 L11.1286192,9.78680982 C11.3204498,9.78680982 11.4761297,9.63478528 11.4761297,9.44696319 L11.4761297,8.26107362 Z"></path>
                            <path d="M5.41139121,11.2254601 C5.41139121,11.0375767 5.25574268,10.8857362 5.06369247,10.8857362 L3.85035565,10.8857362 C3.6585251,10.8857362 3.50284519,11.0375767 3.50284519,11.2254601 L3.50284519,12.411135 C3.50284519,12.5988344 3.6585251,12.7508282 3.85035565,12.7508282 L5.06369247,12.7508282 C5.25574268,12.7508282 5.41139121,12.5988037 5.41139121,12.411135 L5.41139121,11.2254601 L5.41139121,11.2254601 Z"></path>
                            <path d="M8.44368201,11.2254601 C8.44368201,11.0375767 8.28800209,10.8857362 8.09632845,10.8857362 L6.88283473,10.8857362 C6.69100418,10.8857362 6.53532427,11.0375767 6.53532427,11.2254601 L6.53532427,12.411135 C6.53532427,12.5988344 6.69100418,12.7508282 6.88283473,12.7508282 L8.09632845,12.7508282 C8.28800209,12.7508282 8.44368201,12.5988037 8.44368201,12.411135 L8.44368201,11.2254601 Z"></path>
                            <path d="M11.4761297,11.2254601 C11.4761297,11.0375767 11.3204498,10.8857362 11.1287762,10.8857362 L9.91528243,10.8857362 C9.72323222,10.8857362 9.56758368,11.0375767 9.56758368,11.2254601 L9.56758368,12.411135 C9.56758368,12.5988344 9.72323222,12.7508282 9.91528243,12.7508282 L11.1287762,12.7508282 C11.3204498,12.7508282 11.4761297,12.5988037 11.4761297,12.411135 L11.4761297,11.2254601 L11.4761297,11.2254601 Z"></path>
                            <path d="M13.6457008,1.66730061 L13.6457008,3.47865031 C13.6457008,4.29736196 12.9662448,4.95711656 12.128818,4.95711656 L11.1719247,4.95711656 C10.3344351,4.95711656 9.6459728,4.29736196 9.6459728,3.47865031 L9.6459728,1.66079755 L5.33300209,1.66079755 L5.33300209,3.47865031 C5.33300209,4.29736196 4.64457113,4.95711656 3.80720711,4.95711656 L2.85012552,4.95711656 C2.01273013,4.95711656 1.33330544,4.29736196 1.33330544,3.47865031 L1.33330544,1.66730061 C0.601412134,1.68886503 -2.88036262e-12,2.2808589 -2.88036262e-12,3.00849693 L-2.88036262e-12,13.623865 C-2.88036262e-12,14.365184 0.614686192,14.9740184 1.37306485,14.9740184 L13.60591,14.9740184 C14.363159,14.9740184 14.9789749,14.3639264 14.9789749,13.623865 L14.9789749,3.00849693 C14.9789749,2.2808589 14.3775941,1.68886503 13.6457008,1.66730061 Z M13.2012552,12.9628221 C13.2012552,13.2831902 12.935523,13.5430982 12.6076569,13.5430982 L2.34517782,13.5430982 C2.01731172,13.5430982 1.7515795,13.2831902 1.7515795,12.9628221 L1.7515795,7.47960123 C1.7515795,7.15911043 2.01728033,6.89920245 2.34517782,6.89920245 L12.6076255,6.89920245 C12.9354916,6.89920245 13.2012238,7.15911043 13.2012238,7.47960123 L13.2012552,12.9628221 L13.2012552,12.9628221 Z"></path>
                            <path d="M2.84676778,3.98604294 L3.79327406,3.98604294 C4.08056485,3.98604294 4.31350418,3.75868098 4.31350418,3.47785276 L4.31350418,0.508374233 C4.31350418,0.227515337 4.08056485,-1.11022302e-14 3.79327406,-1.11022302e-14 L2.84676778,-1.11022302e-14 C2.55944561,-1.11022302e-14 2.32653766,0.227515337 2.32653766,0.508374233 L2.32653766,3.47785276 C2.32653766,3.75868098 2.55944561,3.98604294 2.84676778,3.98604294 Z"></path>
                            <path d="M11.159749,3.98604294 L12.1062552,3.98604294 C12.3933577,3.98604294 12.6262971,3.75868098 12.6262971,3.47785276 L12.6262971,0.508374233 C12.6263285,0.227515337 12.3933891,-1.11022302e-14 12.1062552,-1.11022302e-14 L11.159749,-1.11022302e-14 C10.8724895,-1.11022302e-14 10.6395502,0.227515337 10.6395502,0.508374233 L10.6395502,3.47785276 C10.6395502,3.75868098 10.8724895,3.98604294 11.159749,3.98604294 Z"></path>
                        </g>
                    </g>
                </g>
            </g>
        </g>
    </symbol>

    <symbol id="money" viewBox="0 0 15 15">
        <g stroke="none" stroke-width="1" fill="none" fill-rule="evenodd">
            <g transform="translate(-780.000000, -805.000000)" fill="currentColor" fill-rule="nonzero">
                <g transform="translate(757.000000, 797.000000)">
                    <g transform="translate(23.000000, 8.000000)">
                        <g>
                            <path d="M13.9448077,7.92 L13.9448077,13.5738462 L3.09865385,13.5738462 L3.09865385,7.92 L13.9448077,7.92 L13.9448077,7.92 Z M14.8678846,6.99692308 L2.17557692,6.99692308 L2.17557692,14.4969231 L14.8678846,14.4969231 L14.8678846,6.99692308 L14.8678846,6.99692308 Z"></path>
                            <g transform="translate(1.730769, 6.923077)">
                                <path d="M9.67557692,0.0738461538 L10.9748077,1.37307692 C10.965,1.42096154 10.9459615,1.46538462 10.9459615,1.51615385 C10.9459615,1.92980769 11.2811538,2.26442308 11.6948077,2.26442308 C11.7455769,2.26442308 11.7894231,2.24538462 11.8373077,2.23615385 L13.1371154,3.53538462 L13.1371154,0.0738461538 L9.67557692,0.0738461538 Z"></path>
                                <circle cx="10.5409615" cy="3.82384615" r="1"></circle>
                                <ellipse cx="6.79096154" cy="3.82384615" rx="2.265" ry="1.96961538"></ellipse>
                                <circle cx="3.04096154" cy="3.82384615" r="1"></circle>
                                <path d="M0.444807692,3.53538462 L1.74403846,2.23615385 C1.79192308,2.24596154 1.83634615,2.265 1.88711538,2.265 C2.30076923,2.265 2.63538462,1.92980769 2.63538462,1.51615385 C2.63538462,1.46538462 2.61634615,1.42153846 2.60653846,1.37365385 L3.90634615,0.0738461538 L0.444807692,0.0738461538 L0.444807692,3.53538462 Z"></path>
                                <path d="M2.63596154,6.13153846 C2.63596154,5.71788462 2.30076923,5.38326923 1.88711538,5.38326923 C1.83634615,5.38326923 1.7925,5.40230769 1.74461538,5.41153846 L0.444807692,4.11230769 L0.444807692,7.57384615 L3.90634615,7.57384615 L2.60711538,6.27461538 C2.61692308,6.22673077 2.63596154,6.18173077 2.63596154,6.13153846 Z"></path>
                                <path d="M11.6948077,5.38269231 C11.2811538,5.38269231 10.9465385,5.71788462 10.9465385,6.13153846 C10.9465385,6.18230769 10.9655769,6.22615385 10.9753846,6.27403846 L9.67557692,7.57384615 L13.1371154,7.57384615 L13.1371154,4.11230769 L11.8378846,5.41153846 C11.79,5.40173077 11.7455769,5.38269231 11.6948077,5.38269231 Z"></path>
                            </g>
                            <g>
                                <circle cx="10.6575" cy="4.90673077" r="1"></circle>
                                <path d="M1.31019231,6.99692308 C1.31019231,6.51923077 1.69788462,6.13153846 2.17557692,6.13153846 L2.64865385,6.13153846 L2.67,6.05769231 L9.34903846,2.4 L9.85961538,2.54884615 C9.87403846,2.595 9.87923077,2.64346154 9.90403846,2.68788462 C10.1025,3.05134615 10.5571154,3.18346154 10.9205769,2.985 C10.9644231,2.96076923 10.9944231,2.92326923 11.0307692,2.89153846 L11.5425,3.04153846 L12.7061538,5.16576923 L12.5567308,5.67692308 C12.5111538,5.69076923 12.4626923,5.69596154 12.4182692,5.72019231 C12.2492308,5.8125 12.1367308,5.96365385 12.0773077,6.13153846 L14.2875,6.13153846 L12.7955769,3.40673077 L12.7961538,3.40673077 L11.1328846,0.370961538 L8.09596154,2.03365385 L8.09653846,2.03365385 L3.03634615,4.80461538 L0,6.46730769 L1.31019231,8.85980769 L1.31019231,6.99692308 Z"></path>
                                <path d="M6.42173077,4.98115385 C5.91923077,5.25576923 5.5575,5.67230769 5.35442308,6.13153846 L9.52730769,6.13153846 C9.49384615,5.95557692 9.44365385,5.78307692 9.35480769,5.62096154 C8.83153846,4.66673077 7.51903846,4.38057692 6.42173077,4.98115385 Z"></path>
                            </g>
                        </g>
                    </g>
                </g>
            </g>
        </g>
    </symbol>

    <symbol id="eye" viewBox="0 0 20 12">
        <g stroke="none" stroke-width="1" fill="none" fill-rule="evenodd">
            <g transform="translate(-344.000000, -807.000000)" fill="currentColor" fill-rule="nonzero">
                <g transform="translate(330.000000, 797.000000)">
                    <g transform="translate(14.000000, 8.000000)">
                        <path d="M9.99693252,2 C6.17689162,2 2.71267894,4.09283276 0.156441718,7.49215017 C-0.0521472393,7.77064846 -0.0521472393,8.15972696 0.156441718,8.43822526 C2.71267894,11.8416382 6.17689162,13.934471 9.99693252,13.934471 C13.8169734,13.934471 17.2811861,11.8416382 19.8374233,8.44232082 C20.0460123,8.16382253 20.0460123,7.77474403 19.8374233,7.49624573 C17.2811861,4.09283276 13.8169734,2 9.99693252,2 Z M10.2709611,12.1692833 C7.73517382,12.3290102 5.64110429,10.2361775 5.8006135,7.69283276 C5.93149284,5.59590444 7.62883436,3.89624573 9.72290389,3.76518771 C12.2586912,3.60546075 14.3527607,5.69829352 14.1932515,8.24163823 C14.0582822,10.334471 12.3609407,12.0341297 10.2709611,12.1692833 Z M10.1441718,10.2279863 C8.77811861,10.3139932 7.64928425,9.18771331 7.7392638,7.81979522 C7.80879346,6.6894198 8.72494888,5.77610922 9.85378323,5.70238908 C11.2198364,5.61638225 12.3486708,6.74266212 12.2586912,8.1105802 C12.1850716,9.24505119 11.2689162,10.1583618 10.1441718,10.2279863 Z"></path>
                    </g>
                </g>
            </g>
        </g>
    </symbol>

    <symbol id="eye" viewBox="0 0 15 15">
        <g stroke="none" stroke-width="1" fill="none" fill-rule="evenodd">
            <g transform="translate(-1092.000000, -185.000000)" fill="currentColor" fill-rule="nonzero">
                <g transform="translate(751.000000, 171.000000)">
                    <g transform="translate(325.000000, 1.000000)">
                        <g transform="translate(16.000000, 13.000000)">
                            <path d="M14.77125,13.6544737 L11.1396429,9.94368421 C12.0733929,8.85315789 12.585,7.48105263 12.585,6.05263158 C12.585,2.71526316 9.82125,0 6.42428571,0 C3.02732143,0 0.263571429,2.71526316 0.263571429,6.05263158 C0.263571429,9.39 3.02732143,12.1052632 6.42428571,12.1052632 C7.69955357,12.1052632 8.91482143,11.7273684 9.95383929,11.01 L13.6130357,14.7489474 C13.7659821,14.905 13.9716964,14.9910526 14.1921429,14.9910526 C14.4008036,14.9910526 14.59875,14.9128947 14.7490179,14.7707895 C15.0683036,14.4689474 15.0784821,13.9684211 14.77125,13.6544737 Z M6.42428571,1.57894737 C8.93517857,1.57894737 10.9778571,3.58578947 10.9778571,6.05263158 C10.9778571,8.51947368 8.93517857,10.5263158 6.42428571,10.5263158 C3.91339286,10.5263158 1.87071429,8.51947368 1.87071429,6.05263158 C1.87071429,3.58578947 3.91339286,1.57894737 6.42428571,1.57894737 Z"></path>
                        </g>
                    </g>
                </g>
            </g>
        </g>
    </symbol>

    <symbol id="left-arrow" viewBox="0 0 20 15">
        <g stroke="none" stroke-width="1" fill="none" fill-rule="evenodd">
            <g transform="translate(-131.000000, -185.000000)" fill="currentColor" fill-rule="nonzero">
                <g transform="translate(89.000000, 172.000000)">
                    <g transform="translate(42.000000, 13.000000)">
                        <path d="M19.1921094,6.71659091 L0.807890625,6.71659091 C0.36171875,6.71659091 0,7.06734848 0,7.5 C0,7.93268939 0.36171875,8.28340909 0.807890625,8.28340909 L19.1921094,8.28340909 C19.6383203,8.28340909 20,7.93268939 20,7.5 C20,7.06734848 19.6383203,6.71659091 19.1921094,6.71659091 Z"></path>
                        <path d="M1.95046875,7.5 L8.27324219,1.36878788 C8.58875,1.06284091 8.58875,0.566818182 8.27324219,0.260871212 C7.95773437,-0.0450378788 7.44621094,-0.0450378788 7.13070312,0.260871212 L0.236640625,6.94602273 C-0.0788671875,7.2519697 -0.0788671875,7.74799242 0.236640625,8.05393939 L7.13070312,14.7390909 C7.2884375,14.8920833 7.49523437,14.9685606 7.70199219,14.9685606 C7.90875,14.9685606 8.11554687,14.8920833 8.27328125,14.7390909 C8.58878906,14.4331439 8.58878906,13.9371212 8.27328125,13.6311742 L1.95046875,7.5 Z"></path>
                    </g>
                </g>
            </g>
        </g>
    </symbol>

    <symbol id="right-arrow" viewBox="0 0 20 15">
        <g stroke="none" stroke-width="1" fill="none" fill-rule="evenodd">
            <g transform="translate(-1305.000000, -573.000000)" fill="currentColor" fill-rule="nonzero">
                <g transform="translate(1290.000000, 560.000000)">
                    <g transform="translate(25.000000, 20.500000) scale(-1, 1) translate(-25.000000, -20.500000) translate(15.000000, 13.000000)">
                        <path d="M19.1921094,6.71659091 L0.807890625,6.71659091 C0.36171875,6.71659091 0,7.06734848 0,7.5 C0,7.93268939 0.36171875,8.28340909 0.807890625,8.28340909 L19.1921094,8.28340909 C19.6383203,8.28340909 20,7.93268939 20,7.5 C20,7.06734848 19.6383203,6.71659091 19.1921094,6.71659091 Z"></path>
                        <path d="M1.95046875,7.5 L8.27324219,1.36878788 C8.58875,1.06284091 8.58875,0.566818182 8.27324219,0.260871212 C7.95773437,-0.0450378788 7.44621094,-0.0450378788 7.13070312,0.260871212 L0.236640625,6.94602273 C-0.0788671875,7.2519697 -0.0788671875,7.74799242 0.236640625,8.05393939 L7.13070312,14.7390909 C7.2884375,14.8920833 7.49523437,14.9685606 7.70199219,14.9685606 C7.90875,14.9685606 8.11554687,14.8920833 8.27328125,14.7390909 C8.58878906,14.4331439 8.58878906,13.9371212 8.27328125,13.6311742 L1.95046875,7.5 Z"></path>
                    </g>
                </g>
            </g>
        </g>
    </symbol>

    <symbol id="search" viewBox="0 0 15 15">
        <g stroke="none" stroke-width="1" fill="none" fill-rule="evenodd">
            <g transform="translate(-1092.000000, -185.000000)" fill="#818181" fill-rule="nonzero">
                <g transform="translate(751.000000, 171.000000)">
                    <g transform="translate(325.000000, 1.000000)">
                        <g transform="translate(16.000000, 13.000000)">
                            <path d="M14.77125,13.6544737 L11.1396429,9.94368421 C12.0733929,8.85315789 12.585,7.48105263 12.585,6.05263158 C12.585,2.71526316 9.82125,0 6.42428571,0 C3.02732143,0 0.263571429,2.71526316 0.263571429,6.05263158 C0.263571429,9.39 3.02732143,12.1052632 6.42428571,12.1052632 C7.69955357,12.1052632 8.91482143,11.7273684 9.95383929,11.01 L13.6130357,14.7489474 C13.7659821,14.905 13.9716964,14.9910526 14.1921429,14.9910526 C14.4008036,14.9910526 14.59875,14.9128947 14.7490179,14.7707895 C15.0683036,14.4689474 15.0784821,13.9684211 14.77125,13.6544737 Z M6.42428571,1.57894737 C8.93517857,1.57894737 10.9778571,3.58578947 10.9778571,6.05263158 C10.9778571,8.51947368 8.93517857,10.5263158 6.42428571,10.5263158 C3.91339286,10.5263158 1.87071429,8.51947368 1.87071429,6.05263158 C1.87071429,3.58578947 3.91339286,1.57894737 6.42428571,1.57894737 Z"></path>
                        </g>
                    </g>
                </g>
            </g>
        </g>
    </symbol>
</svg>
