<?xml version="1.0" encoding="UTF-8"?>
<svg width="50px" height="50px" viewBox="0 0 50 50" version="1.1" xmlns="http://www.w3.org/2000/svg" xmlns:xlink="http://www.w3.org/1999/xlink">
    <!-- Generator: sketchtool 59 (101010) - https://sketch.com -->
    <title>0DDE4F2B-EAF2-4959-B504-3C8B99D6620C</title>
    <desc>Created with sketchtool.</desc>
    <g id="Welcome" stroke="none" stroke-width="1" fill="none" fill-rule="evenodd">
        <g id="Bank_Loan-Management_Loan-Request_-Loan-Confirmation-_Success" transform="translate(-660.000000, -105.000000)" fill="#27BE58" fill-rule="nonzero">
            <g id="check" transform="translate(660.000000, 105.000000)">
                <path d="M25,0 C11.1930339,0 0,11.1930339 0,25 C0,38.8069661 11.1930339,50 25,50 C38.8069661,50 50,38.8069661 50,25 C49.9845377,11.1995443 38.8004557,0.0154622917 25,0 Z M25,48.3333333 C12.113444,48.3333333 1.66666667,37.886556 1.66666667,25 C1.66666667,12.113444 12.113444,1.66666667 25,1.66666667 C37.886556,1.66666667 48.3333333,12.113444 48.3333333,25 C48.3186849,37.8804525 37.8804525,48.3186849 25,48.3333333 Z M37.2558594,16.077474 C37.5809733,16.4029948 37.5809733,16.9303385 37.2558594,17.2558594 L20.5891927,33.922526 C20.2636719,34.24764 19.7363281,34.24764 19.4108073,33.922526 L12.7441406,27.2558594 C12.4283854,26.9287109 12.4328614,26.4090983 12.7543131,26.0876465 C13.075765,25.7661947 13.5953776,25.7617188 13.922526,26.077474 L20,32.1549479 L36.077474,16.077474 C36.4029948,15.75236 36.9303385,15.75236 37.2558594,16.077474 Z" id="Shape"></path>
            </g>
        </g>
    </g>
</svg>