<?xml version="1.0" encoding="UTF-8"?>
<svg width="9px" height="13px" viewBox="0 0 9 13" version="1.1" xmlns="http://www.w3.org/2000/svg" xmlns:xlink="http://www.w3.org/1999/xlink">
    <!-- Generator: sketchtool 59 (101010) - https://sketch.com -->
    <title>2D2DC0DA-B323-4420-B656-5DCE4ECED39B</title>
    <desc>Created with sketchtool.</desc>
    <g id="Welcome" stroke="none" stroke-width="1" fill="none" fill-rule="evenodd">
        <g id="Bank_Loan-Management_Loan-Request_Loan-Offers" transform="translate(-1169.000000, -353.000000)" fill="#F80A0A">
            <g id="Trash" transform="translate(1169.000000, 353.000000)">
                <path d="M0.645,3.86 L0.645,11.393 C0.645,11.9298208 1.08017922,12.365 1.617,12.365 L6.963,12.365 C7.49982078,12.365 7.935,11.9298208 7.935,11.393 L7.935,3.86 L7.935,3.86 L0.645,3.86 Z" id="round" fill-rule="nonzero"></path>
                <path d="M5.505,1.73375 L5.505,1.4705 C5.505,1.11261948 5.21488052,0.8225 4.857,0.8225 L3.723,0.8225 C3.36511948,0.8225 3.075,1.11261948 3.075,1.4705 L3.075,1.73375 L3.075,1.73375 L0.3615,1.73375 C0.182559741,1.73375 0.0375,1.87880974 0.0375,2.05775 L0.0375,2.321 C0.0375,2.49994026 0.182559741,2.645 0.3615,2.645 L8.2185,2.645 C8.39744026,2.645 8.5425,2.49994026 8.5425,2.321 L8.5425,2.05775 C8.5425,1.87880974 8.39744026,1.73375 8.2185,1.73375 L5.505,1.73375 L5.505,1.73375 Z" id="Shape" opacity="0.3"></path>
            </g>
        </g>
    </g>
</svg>