<?xml version="1.0" encoding="UTF-8"?>
<svg width="11px" height="14px" viewBox="0 0 11 14" version="1.1" xmlns="http://www.w3.org/2000/svg" xmlns:xlink="http://www.w3.org/1999/xlink">
    <!-- Generator: sketchtool 54.1 (76490) - https://sketchapp.com -->
    <title>A413A209-3E80-4018-96C5-354F565E55BD</title>
    <desc>Created with sketchtool.</desc>
    <g id="Welcome" stroke="none" stroke-width="1" fill="none" fill-rule="evenodd">
        <g id="Bank_Loan-Management_Loan-Offers_Create-Offer" transform="translate(-786.000000, -250.000000)">
            <g id="Group" transform="translate(498.000000, 88.000000)">
                <g id="Trash-Stockholm-icons-/-General-/-Trash" transform="translate(285.000000, 160.000000)">
                    <rect id="bound" x="0" y="0" width="17" height="17"></rect>
                    <path d="M4.25,5.66666667 L4.25,14.0833333 C4.25,14.9117605 4.92157288,15.5833333 5.75,15.5833333 L11.25,15.5833333 C12.0784271,15.5833333 12.75,14.9117605 12.75,14.0833333 L12.75,5.66666667 L4.25,5.66666667 Z" id="round" fill="#27BE58" fill-rule="nonzero"></path>
                    <path d="M9.91666667,3.1875 L9.91666667,3.125 C9.91666667,2.57271525 9.46895142,2.125 8.91666667,2.125 L8.08333333,2.125 C7.53104858,2.125 7.08333333,2.57271525 7.08333333,3.125 L7.08333333,3.1875 L4.04166667,3.1875 C3.76552429,3.1875 3.54166667,3.41135763 3.54166667,3.6875 L3.54166667,3.75 C3.54166667,4.02614237 3.76552429,4.25 4.04166667,4.25 L12.9583333,4.25 C13.2344757,4.25 13.4583333,4.02614237 13.4583333,3.75 L13.4583333,3.6875 C13.4583333,3.41135763 13.2344757,3.1875 12.9583333,3.1875 L9.91666667,3.1875 Z" id="Shape" fill="#009831" opacity="0.3"></path>
                </g>
            </g>
        </g>
    </g>
</svg>