<?xml version="1.0" encoding="UTF-8"?>
<svg width="13px" height="14px" viewBox="0 0 13 14" version="1.1" xmlns="http://www.w3.org/2000/svg" xmlns:xlink="http://www.w3.org/1999/xlink">
    <!-- Generator: sketchtool 59 (101010) - https://sketch.com -->
    <title>70EF911C-C226-44BF-B1BC-6F88F53DA0A3</title>
    <desc>Created with sketchtool.</desc>
    <g id="Welcome" stroke="none" stroke-width="1" fill="none" fill-rule="evenodd">
        <g id="Bank_User-Setup_Added-User-(1)" transform="translate(-1178.000000, -297.000000)">
            <g id="Unlock" transform="translate(1178.000000, 297.000000)">
                <path d="M9.50189764,1.6469909 L8.57551383,3.03676937 C8.14244724,2.41038368 7.41914874,2 6.6,2 C5.2745166,2 4.2,3.0745166 4.2,4.4 L4.2,6 L11.4,6 C12.2836556,6 13,6.7163444 13,7.6 L13,12.4 C13,13.2836556 12.2836556,14 11.4,14 L1.8,14 C0.9163444,14 0.2,13.2836556 0.2,12.4 L0.2,7.6 C0.2,6.7163444 0.9163444,6 1.8,6 L2.6,6 L2.6,4.4 C2.6,2.190861 4.390861,0.4 6.6,0.4 C7.74243906,0.4 8.77301549,0.878940848 9.50189764,1.6469909 Z" id="Combined-Shape" fill="#000000"></path>
                <circle id="Oval" fill="#CECECE" cx="7" cy="10" r="2"></circle>
            </g>
        </g>
    </g>
</svg>