<?xml version="1.0" encoding="UTF-8"?>
<svg width="35px" height="36px" viewBox="0 0 35 36" version="1.1" xmlns="http://www.w3.org/2000/svg" xmlns:xlink="http://www.w3.org/1999/xlink">
    <!-- Generator: sketchtool 59 (101010) - https://sketch.com -->
    <title>9467B9BF-3E4E-4CDE-8FE4-3275643522EF</title>
    <desc>Created with sketchtool.</desc>
    <g id="Welcome" stroke="none" stroke-width="1" fill="none" fill-rule="evenodd">
        <g id="Bank_Repayment--Schedule_Schedule-Breakdown" transform="translate(-1281.000000, -98.000000)">
            <g id="xls" transform="translate(1281.000000, 98.000000)">
                <g>
                    <ellipse id="Oval" fill="#EFEFEF" cx="17.5" cy="18" rx="17.5" ry="17.6170213"></ellipse>
                    <path d="M12.5963962,6.5106383 C11.9427791,6.5106383 11.4130435,7.04389587 11.4130435,7.70185849 L11.4130435,26.7662266 C11.4130435,27.4241892 11.9427791,27.9574468 12.5963962,27.9574468 L26.2079516,27.9574468 C26.8615687,27.9574468 27.3913043,27.4241892 27.3913043,26.7662266 L27.3913043,12.0285944 L21.6859462,6.5106383 L12.5963962,6.5106383 Z" id="Path" fill="#ABDB4B"></path>
                    <path d="M27.3913043,11.8723404 L22.5668973,11.8723404 C21.8695364,11.8723404 21.3043478,11.3538936 21.3043478,10.7145627 L21.3043478,6.5106383 L27.3913043,11.8723404 Z" id="Path" fill="#6A9D04"></path>
                    <path d="M25.1086957,22.7722577 C25.1086957,23.9439675 24.1562924,24.893617 22.9821076,24.893617 L7.45267501,24.893617 C6.27756759,24.893617 5.32608696,23.9439675 5.32608696,22.7722577 L5.32608696,16.2915721 C5.32608696,15.1198623 6.27768292,14.1702128 7.45267501,14.1702128 L22.9821076,14.1702128 C24.1562924,14.1702128 25.1086957,15.1198623 25.1086957,16.2915721 L25.1086957,22.7722577 Z" id="Path" fill="#7DB905"></path>
                    <path d="M7.60869565,21.9574468 C7.60869565,21.7702128 7.67369252,21.6170213 7.79556164,21.4553191 L9.33111261,19.4808511 L7.88493233,17.6340426 C7.78743703,17.506383 7.69806634,17.3361702 7.69806634,17.1489362 C7.69806634,16.7829787 7.95805381,16.5021277 8.31553657,16.5021277 C8.58364865,16.5021277 8.7380162,16.612766 8.89238376,16.8255319 L10.1354488,18.5617021 L11.3703893,16.8595745 C11.5410061,16.6297872 11.7034982,16.5021277 11.9797349,16.5021277 C12.2559716,16.5021277 12.5484575,16.7319149 12.5484575,17.106383 C12.5484575,17.293617 12.4834606,17.4468085 12.3615915,17.6085106 L10.9154112,19.4638298 L12.4428376,21.4297872 C12.5403329,21.5574468 12.6297036,21.7276596 12.6297036,21.9148936 C12.6297036,22.2808511 12.3697161,22.5617021 12.0122333,22.5617021 C11.7441213,22.5617021 11.5897537,22.4510638 11.4353862,22.2382979 L10.1029504,20.4085106 L8.78676385,22.2042553 C8.61614708,22.4340426 8.45365491,22.5617021 8.17741823,22.5617021 C7.90118155,22.5617021 7.60869565,22.3319149 7.60869565,21.9574468 Z M13.6859026,21.8553191 L13.6859026,17.1574468 C13.6859026,16.7914894 13.9621393,16.5021277 14.3114975,16.5021277 C14.6608556,16.5021277 14.9370923,16.7914894 14.9370923,17.1574468 L14.9370923,21.3191489 L17.2526057,21.3191489 C17.5694654,21.3191489 17.8213283,21.5829787 17.8213283,21.9148936 C17.8213283,22.2468085 17.5694654,22.5106383 17.2526057,22.5106383 L14.3114975,22.5106383 C13.9621393,22.5106383 13.6859026,22.2212766 13.6859026,21.8553191 Z M20.7380626,22.5957447 C19.9905987,22.5957447 19.2350101,22.3574468 18.6012907,21.8808511 C18.4631723,21.7787234 18.365677,21.5914894 18.365677,21.387234 C18.365677,21.0468085 18.6256645,20.7829787 18.9506488,20.7829787 C19.113141,20.7829787 19.2268855,20.8425532 19.3081316,20.9021277 C19.7387358,21.2340426 20.2099631,21.4382979 20.7624365,21.4382979 C21.2742868,21.4382979 21.5830219,21.2255319 21.5830219,20.8765957 L21.5830219,20.8595745 C21.5830219,20.5276596 21.3880313,20.3574468 20.4374521,20.1021277 C19.2918824,19.7957447 18.552543,19.4638298 18.552543,18.2808511 L18.552543,18.2638298 C18.552543,17.1829787 19.381253,16.4680851 20.543072,16.4680851 C21.2336637,16.4680851 21.8348847,16.6553191 22.3467351,16.9957447 C22.4848534,17.0808511 22.6229717,17.2595745 22.6229717,17.5148936 C22.6229717,17.8553191 22.3629843,18.1191489 22.038,18.1191489 C21.9161308,18.1191489 21.8186355,18.0851064 21.7211402,18.0255319 C21.3067852,17.7702128 20.916804,17.6255319 20.5268228,17.6255319 C20.0474709,17.6255319 19.7956081,17.8553191 19.7956081,18.1446809 L19.7956081,18.1617021 C19.7956081,18.5531915 20.0393463,18.6808511 21.0224239,18.9446809 C22.1761183,19.2595745 22.826087,19.693617 22.826087,20.7319149 L22.826087,20.7489362 C22.826087,21.9319149 21.9648785,22.5957447 20.7380626,22.5957447 Z" id="XLS" fill="#FFFFFF"></path>
                </g>
            </g>
        </g>
    </g>
</svg>